<?xml version="1.0" encoding="utf-8"?>
<!-- Generator: Adobe Illustrator 24.2.3, SVG Export Plug-In . SVG Version: 6.00 Build 0)  -->
<svg version="1.1" id="Capa_1" xmlns="http://www.w3.org/2000/svg" xmlns:xlink="http://www.w3.org/1999/xlink" x="0px" y="0px"
	 viewBox="0 0 216.5 103" style="enable-background:new 0 0 216.5 103;" xml:space="preserve">
<style type="text/css">
	.st0{clip-path:url(#SVGID_2_);}
	.st1{fill:#1E2549;}
</style>
<g>
	<defs>
		<rect id="SVGID_1_" x="-13" width="223.8" height="103"/>
	</defs>
	<clipPath id="SVGID_2_">
		<use xlink:href="#SVGID_1_"  style="overflow:visible;"/>
	</clipPath>
	<g class="st0">
		<g>
			<g>
				<path class="st1" d="M121.4,111L121.4,111L121.4,111L121.4,111z"/>
			</g>
			<g>
				<path class="st1" d="M121.8,103.6c1.5,2.4,3.4,4.5,5.7,6.1c-1.7,1-3.8,1.6-5.9,1.6c-2,0-4-0.6-5.7-1.6
					C118.4,108.1,120.4,106,121.8,103.6z"/>
				<path class="st1" d="M222,155.2l-2-0.3c0,0-3.2,5.9-11.9,5.9c-3.3,0-6.7-1.5-9.6-4.1l0-14.7c0-17.6-11.9-23.3-21.5-27.9
					c-9.2-4.4-16.4-7.9-16.4-19.4h-0.1c0-7.6-3.3-13.6-3.9-14.7l-2.8-5.8c-1.3-3.7-2-7.5-2-11.5c0-3.8,1.3-8.6,3.7-13.7l0.1-0.1
					c3.3-7.6,9-14.1,11.3-14.1c2,0,3.3,1.8,5.6,5.7c2.6,4.3,6.1,10.3,13.8,10.3c9.3,0,15.5-11.9,15.5-23c0-6.5-2.2-12.3-6.1-16.5
					c-4.6-5-11.7-7.5-20.4-7.5c-19.1,0-29.7,10.1-33.6,15c-3.7-1.4-10.6-3.5-20-3.5c-9.4,0-16.3,2.1-20,3.5c-4-4.9-14.6-15-33.7-15
					c-8.7,0-15.8,2.6-20.5,7.7c-3.8,4.2-6,10.1-6,16.5c0,0.1,0,0.3,0,0.4c-1.4-0.6-2.9-0.9-4.6-0.9c-5.2,0-11.2,8.8-13.5,12.6
					c-2.3,3.7-7.8,13.5-7.7,22.8c0,16.5,7.8,25.2,13.5,31.6c3.2,3.7,5.9,6.6,5.9,9.7c0,1.8-4.4,4.2-8.3,6.4
					c-8.3,4.6-19.6,10.9-19.5,24.5l0,14.5c0,6.7-5.5,12.2-12.3,12.2c-5.3,0-8.2-4.2-8.3-4.3l-1.2-1.9l-2.2,0.4
					c-4.8,0.7-13.7,4.5-13.7,13.3c0,10.6,14,17.9,26.6,17.9c9.4,0,16.1-2.4,19.2-3.9c2.1,1.2,5.8,2.7,10.2,2.7h155.8
					c4.4,0,8-1.7,10.1-2.8c3,1.5,9.2,3.8,19.4,3.7c14.3,0,25.9-7.8,25.9-17.3C236.8,159.8,227.1,155.8,222,155.2z M52.7,16.3
					c3.3-3.6,8.5-5.4,15.3-5.4c20.5,0,29.1,13.6,29.5,14.1l1.8,2.9l3-1.6c0.1,0,7.4-4,19.4-4c12.1,0,19.4,3.9,19.5,3.9l3,1.6
					l1.7-2.9c0.1-0.1,8.7-14.1,29.4-14.1c6.8,0,11.9,1.6,15.3,5.2c3.5,3.7,4.2,8.5,4.2,11.8c0,8.6-4.7,16.2-8.5,16.2
					c-3.5,0-5.3-2.8-7.7-7c-2.4-4-5.4-9.1-11.7-9.1c-9.3,0-17.1,17-17.7,18.2c-2,4.2-4.4,10.5-4.4,16.6c0,4.8,0.9,9.5,2.5,14l3,6.4
					c0,0,3.1,5,3.1,11.4c-0.7,7.2-6.8,12.9-14.4,12.9c-7.9,0-14.5-6.4-14.5-14.3l0-5c5.6-1.3,9.7-6.2,9.7-12.1c0,0-5.2-2.6-12.6-2.6
					c-7.4,0-12.6,2.6-12.6,2.6c0,5.9,4.1,10.8,9.7,12.1l0,5c0,7.9-6.5,14.3-14.4,14.3c-7.5,0-13.7-5.6-14.4-12.8
					c0-6.2,2.9-11.1,2.9-11.1l3.1-6.4l0.1-0.3c1.7-4.5,2.5-9.2,2.5-14c0-9.3-5.5-19-7.8-22.7c-2.3-3.8-8.4-12.5-13.6-12.5
					c-0.3,0-0.8,0-0.8,0c-5.8,0-8.8,4.6-11.1,8.6c-1.1,1.5-2,3.1-2.8,4.6c-1.5,2.1-3,3.3-5.3,3.3v0h0v0c-3.8,0-8.6-7.4-8.6-16
					C48.5,24.8,49.2,20,52.7,16.3z M86.3,178.9H72.1c0.9-3.5,2-11.7-4.2-16.4c-0.2-0.1-0.3-0.3-0.5-0.4L73,140
					c0.4-1.6-0.6-3.1-2.1-3.5c-1.6-0.4-3.2,0.6-3.6,2.1l-3.7,14.5l-3.7-14.5c-0.4-1.6-2-2.5-3.5-2.1c-1.6,0.4-2.5,2-2.1,3.5l4.7,18
					c0,0,0,0,0,0c0.1,0.6,1.5,6.1,5.5,9.1c4.5,3.4,1.7,11.8,1.7,11.8H51.6c0.5-3,1.2-10-2.1-14.5c-1.2-1.6-2.7-2.7-4.5-3.3
					l-5.7-22.5c-0.4-1.6-2-2.5-3.6-2.1c-1.6,0.4-2.5,2-2.1,3.5l5.1,20c-4.3-0.9-5.4-2.2-5.7-2.7c-0.3-0.5-0.2-1-0.2-1.3l0.2-0.6
					c0.6-1.5-0.2-3.1-1.7-3.7c-1.5-0.6-3.2,0.2-3.7,1.7v0c-0.4,0.8-1.4,3.5,0.2,6.6c2,3.6,6.6,5.6,14.2,6.3c1.2,0.1,2.1,0.6,2.7,1.4
					c2,2.8,1.3,9,0.9,11.1H25c-4.4,0-7.4-2.3-7.4-2.3l-1.9-1.4l-2,1.3c-0.1,0-6.6,3.9-17.6,3.9c-9.9,0-19.6-5.5-19.6-11
					c0-3.5,3.7-5.2,6-6c2.2,2.2,6.3,5.5,12.5,5.5c10.7,0,19.4-8.6,19.4-19.2v-14.5c0-9.6,8.1-14.1,15.9-18.5
					c6.1-3.4,11.9-6.6,11.9-12.5c0-5.7-3.7-9.8-7.7-14.2c-1.7-2-3.5-4-5.2-6.3l7.9-1.6c1.1-0.2,1.8-1.3,1.6-2.4
					c-0.2-1.1-1.3-1.8-2.4-1.6l-9.5,1.9c-1-1.9-2-3.9-2.7-6.2l12.2,1.9c0.1,0,0.2,0,0.3,0c1,0,1.9-0.7,2-1.7
					c0.2-1.1-0.6-2.1-1.7-2.3l-13.9-2.1c-0.3-2-0.6-4.2-0.6-6.6c0-11.5,11.1-26.8,14.6-28.4c3.1,0.4,8.2,8.2,11,15.1l1.2,3l0.1-0.1
					l0,0l3-0.9c3-0.9,6.3-0.9,9.2,0l3.1,0.9l1.2-3c2.8-7,7.9-14.7,11-15.1c3.4,1.6,14.6,16.9,14.6,28.3c0,2.2-0.2,4.3-0.6,6.5
					l-12.7,2.4c-1.1,0.2-1.8,1.3-1.6,2.4c0.2,1,1,1.7,2,1.7c0.1,0,0.3,0,0.4,0l10.8-2c0,0-0.1,0.5-0.2,0.7l-2.5,5.2L79.1,78
					c-1.1-0.2-2.2,0.5-2.4,1.6c-0.2,1.1,0.5,2.2,1.6,2.4l7,1.3c-1.1,2.7-2.3,6.8-2.3,11.5c0,4,1.6,7,3.3,10.2
					c2.1,3.9,4.2,8.1,4.2,15.2c0,3.6-2.4,11.7-4.5,18.9c-5.1,16.8-7.1,24.4-1.9,26.8C89.9,168.7,86.4,178.8,86.3,178.9z M210.9,180
					c-12.1,0-17.3-3.7-17.3-3.7l-2.2-1.7l-2.2,1.7c0,0-3.3,2.5-7.9,2.5h-25.4c-0.1-0.1-5-6.4-2.7-10.9c3.2-6.5,9.5-7.8,17.8-7.9
					c3.8,0,5.5-1.7,6.3-3.1c2.2-4-1.5-9.9-2.6-11.6c-0.9-1.3-2.7-1.7-4.1-0.8c-1.3,0.9-1.7,2.7-0.8,4c1.4,2,2.5,4.7,2.3,5.6
					c-0.2,0.1-0.5,0.1-1.1,0.1c-2.1,0-4.9,0-7.9,0.5l-1.7-6.7c-0.4-1.6-2-2.5-3.6-2.1c-1.6,0.4-2.5,2-2.1,3.5l1.8,6.9
					c-3.7,1.6-7.2,4.3-9.5,9c-2.5,4.9-0.7,10.1,1,13.5h-22.8c-0.9-5.3-1.1-12.9,2.4-14.3c1.2-0.5,2.4-0.7,3.5-1
					c2.4-0.5,5.1-1.1,6.5-3.7c1.3-2.3,1.1-5.4-0.5-10.4l-2.8-11c-0.4-1.6-2-2.5-3.5-2.1c-1.6,0.4-2.5,2-2.1,3.5l2.8,11.1
					c0,0,0,0.1,0,0.1c0,0,0,0.1,0,0.1c1.6,4.7,1.1,5.8,1,5.9c-0.2,0.3-1.8,0.7-2.7,0.9c-1.3,0.3-2.8,0.6-4.4,1.3
					c-2.1,0.8-3.5,2.3-4.6,4c-1-1.8-2.4-3.2-4.5-4c-1.6-0.6-3.1-1-4.4-1.3c-0.9-0.2-2.6-0.6-2.7-0.9c-0.1-0.1-0.6-1.2,1-5.9
					c0-0.1,0-0.1,0-0.2c0,0,0,0,0-0.1l2.8-11.1c0.4-1.6-0.6-3.1-2.1-3.5c-1.6-0.4-3.2,0.6-3.6,2.1l-2.7,11
					c-1.6,5.1-1.8,8.1-0.5,10.4c1.4,2.5,4.1,3.1,6.5,3.7c1.2,0.3,2.4,0.5,3.5,1c3.5,1.4,3.3,9,2.4,14.3H93.5
					c1.5-5.8,1.7-14.6-5.5-18.7c-0.2-3.2,2.7-12.7,4.6-19.2c2.5-8.3,4.9-16.2,4.9-20.8c0-3.3-0.4-6.1-1-8.5c2.5,1,5.1,1.6,8,1.6
					c1.9,0,3.8-0.3,5.6-0.8c3.1,2.9,7.3,4.6,11.6,4.5c4.4,0,8.6-1.6,11.7-4.5c1.8,0.5,3.7,0.8,5.7,0.8c6.8,0,12.7-3.3,16.4-8.3
					c3.6,8.2,11.3,12,18.4,15.4c9.4,4.5,17.6,8.4,17.6,21.7l0,17.4l0.9,1c4.2,4.6,10,7.2,15.6,7.2c7.3,0,12.2-3.3,14.5-5.4
					c2.5,0.7,7.1,2.6,7.1,7.3C229.7,175,220.8,180,210.9,180z"/>
			</g>
			<g>
				<path class="st1" d="M108.5,68.4c2.7,0,5-2.2,5-4.9c0-2.7-2.2-4.9-5-4.9c-2.7,0-4.9,2.2-4.9,4.9
					C103.6,66.2,105.8,68.4,108.5,68.4z"/>
				<path class="st1" d="M135,68.4c2.7,0,4.9-2.2,4.9-4.9c0-2.7-2.2-4.9-4.9-4.9c-2.7,0-5,2.2-5,4.9C130,66.2,132.2,68.4,135,68.4z"
					/>
			</g>
			<g>
				<path class="st1" d="M49.4,63.4c0-2.7-2.2-4.9-4.9-4.9c-2.7,0-5,2.2-5,4.9c0,2.7,2.2,4.9,5,4.9C47.2,68.4,49.4,66.1,49.4,63.4z"
					/>
				<path class="st1" d="M70.9,58.6c-2.8,0-5,2.2-5,4.9c0,2.7,2.2,4.9,5,4.9c2.7,0,4.9-2.2,4.9-4.9C75.9,60.7,73.7,58.5,70.9,58.6z"
					/>
			</g>
		</g>
		<path class="st1" d="M68.6,78.6c0,1.2-0.5,2.3-1.3,3.1c-0.8,0.8-2,1.3-3.1,1.3h0c-2.4,0-4.4-2-4.4-4.4l0-1.7c0-0.1,0-0.2-0.1-0.3
			c2.6-0.8,4.5-3.2,4.5-6.1h0c0,0-2.8-1.3-6.5-1.3c-3.8,0-6.5,1.3-6.5,1.3l0,0c0,2.8,1.9,5.2,4.5,6.1c0,0.1-0.1,0.2-0.1,0.3l0,1.7
			c0,2.4-2,4.4-4.4,4.4h0c-1.2,0-2.3-0.5-3.1-1.3c-0.8-0.8-1.3-1.9-1.3-3.1l-4.1,0c0,2.3,0.9,4.4,2.5,6c1.6,1.6,3.7,2.4,6,2.4h0
			c2.6,0,4.9-1.2,6.5-3h0c1.6,1.8,3.9,3,6.5,3h0c2.3,0,4.4-0.9,6-2.4c1.6-1.6,2.5-3.7,2.5-6L68.6,78.6"/>
	</g>
</g>
</svg>
