<?xml version="1.0" standalone="yes"?>
<svg xmlns="http://www.w3.org/2000/svg" width="1024" height="1024">
<path style="fill:#ffffff; stroke:none;" d="M0 0L0 1024L1024 1024L1024 0L0 0z"/>
<path style="fill:#b3bdce; stroke:none;" d="M552 161C553.248 161.685 553.548 161.749 555 162C553.752 161.315 553.452 161.251 552 161z"/>
<path style="fill:#7c8cab; stroke:none;" d="M555.667 161.333C555.222 161.778 556.278 161.722 556.333 161.667C556.778 161.222 555.722 161.278 555.667 161.333z"/>
<path style="fill:#576c93; stroke:none;" d="M557 161C558.248 161.685 558.548 161.749 560 162C558.752 161.315 558.452 161.251 557 161z"/>
<path style="fill:#203c70; stroke:none;" d="M560.667 161.333C560.222 161.778 561.278 161.722 561.333 161.667C561.778 161.222 560.722 161.278 560.667 161.333z"/>
<path style="fill:#00205b; stroke:none;" d="M562 161.424C554.342 162.43 546.631 162.342 539 163.805C502.121 170.874 467.382 186.4 439 211.286C418.98 228.841 403.615 249.689 391.028 273C346.1 356.201 372.021 465.624 444 524.537C487.757 560.351 545.197 575.478 601 568.714C675.065 559.738 739.37 507.425 765.575 438C776.197 409.858 779.962 378.962 777.911 349C771.896 261.18 705.274 185.748 620 166.349C601.643 162.174 580.829 158.952 562 161.424z"/>
<path style="fill:#274274; stroke:none;" d="M585 161C586.248 161.685 586.548 161.749 588 162C586.752 161.315 586.452 161.251 585 161z"/>
<path style="fill:#5e7297; stroke:none;" d="M588 161C589.248 161.685 589.548 161.749 591 162C589.752 161.315 589.452 161.251 588 161z"/>
<path style="fill:#95a2bb; stroke:none;" d="M591 161C592.248 161.685 592.548 161.749 594 162C592.752 161.315 592.452 161.251 591 161z"/>
<path style="fill:#d6dbe5; stroke:none;" d="M594.667 161.333C594.222 161.778 595.278 161.722 595.333 161.667C595.778 161.222 594.722 161.278 594.667 161.333z"/>
<path style="fill:#a5b0c5; stroke:none;" d="M544 162C545.248 162.685 545.548 162.749 547 163C545.752 162.315 545.452 162.251 544 162z"/>
<path style="fill:#485f89; stroke:none;" d="M547.667 162.333C547.222 162.778 548.278 162.722 548.333 162.667C548.778 162.222 547.722 162.278 547.667 162.333z"/>
<path style="fill:#546991; stroke:none;" d="M598.667 162.333C598.222 162.778 599.278 162.722 599.333 162.667C599.778 162.222 598.722 162.278 598.667 162.333z"/>
<path style="fill:#92a0b9; stroke:none;" d="M600 162C601.248 162.685 601.548 162.749 603 163C601.752 162.315 601.452 162.251 600 162z"/>
<path style="fill:#cdd3df; stroke:none;" d="M538 163L539 164L538 163z"/>
<path style="fill:#9aa7be; stroke:none;" d="M539 163L540 164L539 163z"/>
<path style="fill:#687b9e; stroke:none;" d="M540 163L541 164L540 163z"/>
<path style="fill:#4c628c; stroke:none;" d="M606 163L607 164L606 163z"/>
<path style="fill:#7e8eac; stroke:none;" d="M607 163L608 164L607 163z"/>
<path style="fill:#b1bbcd; stroke:none;" d="M608 163L609 164L608 163z"/>
<path style="fill:#cad1dd; stroke:none;" d="M533 164L534 165L533 164z"/>
<path style="fill:#97a4bc; stroke:none;" d="M534 164L535 165L534 164z"/>
<path style="fill:#65789c; stroke:none;" d="M535 164L536 165L535 164z"/>
<path style="fill:#485f89; stroke:none;" d="M611 164L612 165L611 164z"/>
<path style="fill:#7b8caa; stroke:none;" d="M612 164L613 165L612 164z"/>
<path style="fill:#aeb8cb; stroke:none;" d="M613 164L614 165L613 164z"/>
<path style="fill:#adb7ca; stroke:none;" d="M529 165L530 166L529 165z"/>
<path style="fill:#7385a5; stroke:none;" d="M530 165L531 166L530 165z"/>
<path style="fill:#395280; stroke:none;" d="M531 165L532 166L531 165z"/>
<path style="fill:#50668e; stroke:none;" d="M616 165L617 166L616 165z"/>
<path style="fill:#8a99b4; stroke:none;" d="M617 165L618 166L617 165z"/>
<path style="fill:#c4cbd9; stroke:none;" d="M618 165L619 166L618 165z"/>
<path style="fill:#94a1ba; stroke:none;" d="M525 166L526 167L525 166z"/>
<path style="fill:#5a6f95; stroke:none;" d="M526 166L527 167L526 166z"/>
<path style="fill:#3a5380; stroke:none;" d="M620 166L621 167L620 166z"/>
<path style="fill:#7485a6; stroke:none;" d="M621 166L622 167L621 166z"/>
<path style="fill:#aeb8cb; stroke:none;" d="M622 166L623 167L622 166z"/>
<path style="fill:#b8c1d1; stroke:none;" d="M520 167L521 168L520 167z"/>
<path style="fill:#7e8eac; stroke:none;" d="M521 167L522 168L521 167z"/>
<path style="fill:#445b87; stroke:none;" d="M522 167L523 168L522 167z"/>
<path style="fill:#5b7096; stroke:none;" d="M625 167L626 168L625 167z"/>
<path style="fill:#95a2bb; stroke:none;" d="M626 167L627 168L626 167z"/>
<path style="fill:#afb9cc; stroke:none;" d="M517 168L518 169L517 168z"/>
<path style="fill:#677a9d; stroke:none;" d="M518 168L519 169L518 168z"/>
<path style="fill:#3a5380; stroke:none;" d="M628 168L629 169L628 168z"/>
<path style="fill:#8393af; stroke:none;" d="M629 168L630 169L629 168z"/>
<path style="fill:#cbd2de; stroke:none;" d="M630 168L631 169L630 168z"/>
<path style="fill:#8796b2; stroke:none;" d="M514 169L515 170L514 169z"/>
<path style="fill:#3f5784; stroke:none;" d="M515 169L516 170L515 169z"/>
<path style="fill:#5f7398; stroke:none;" d="M632 169L633 170L632 169z"/>
<path style="fill:#a7b2c6; stroke:none;" d="M633 169L634 170L633 169z"/>
<path style="fill:#c9d0dc; stroke:none;" d="M510 170L511 171L510 170z"/>
<path style="fill:#7284a4; stroke:none;" d="M511 170L512 171L511 170z"/>
<path style="fill:#415985; stroke:none;" d="M635 170L636 171L635 170z"/>
<path style="fill:#99a6bd; stroke:none;" d="M636 170L637 171L636 170z"/>
<path style="fill:#7d8dab; stroke:none;" d="M508 171L509 172L508 171z"/>
<path style="fill:#475e89; stroke:none;" d="M638 171L639 172L638 171z"/>
<path style="fill:#9eaac1; stroke:none;" d="M639 171L640 172L639 171z"/>
<path style="fill:#8292af; stroke:none;" d="M505 172L506 173L505 172z"/>
<path style="fill:#4c628c; stroke:none;" d="M641 172L642 173L641 172z"/>
<path style="fill:#a4afc4; stroke:none;" d="M642 172L643 173L642 172z"/>
<path style="fill:#8897b2; stroke:none;" d="M502 173L503 174L502 173z"/>
<path style="fill:#526890; stroke:none;" d="M644 173L645 174L644 173z"/>
<path style="fill:#a9b4c8; stroke:none;" d="M645 173L646 174L645 173z"/>
<path style="fill:#adb7ca; stroke:none;" d="M499 174L500 175L499 174z"/>
<path style="fill:#4d638d; stroke:none;" d="M500 174L501 175L500 174z"/>
<path style="fill:#7889a8; stroke:none;" d="M647 174L648 175L647 174z"/>
<path style="fill:#7183a4; stroke:none;" d="M497 175L498 176L497 175z"/>
<path style="fill:#364f7e; stroke:none;" d="M649 175L650 176L649 175z"/>
<path style="fill:#96a3bb; stroke:none;" d="M650 175L651 176L650 175z"/>
<path style="fill:#8f9db7; stroke:none;" d="M494 176L495 177L494 176z"/>
<path style="fill:#5a6f95; stroke:none;" d="M652 176L653 177L652 176z"/>
<path style="fill:#bac3d3; stroke:none;" d="M653 176L654 177L653 176z"/>
<path style="fill:#7788a8; stroke:none;" d="M492 177L493 178L492 177z"/>
<path style="fill:#a5b0c5; stroke:none;" d="M655 177L656 178L655 177z"/>
<path style="fill:#617599; stroke:none;" d="M490 178L491 179L490 178z"/>
<path style="fill:#96a3bb; stroke:none;" d="M657 178L658 179L657 178z"/>
<path style="fill:#526890; stroke:none;" d="M488 179L489 180L488 179z"/>
<path style="fill:#8796b2; stroke:none;" d="M659 179L660 180L659 179z"/>
<path style="fill:#bac3d3; stroke:none;" d="M485 180L486 181L485 180z"/>
<path style="fill:#435b86; stroke:none;" d="M486 180L487 181L486 180z"/>
<path style="fill:#7082a3; stroke:none;" d="M661 180L662 181L661 180z"/>
<path style="fill:#bac3d3; stroke:none;" d="M483 181L484 182L483 181z"/>
<path style="fill:#395280; stroke:none;" d="M484 181L485 182L484 181z"/>
<path style="fill:#6a7d9f; stroke:none;" d="M663 181L664 182L663 181z"/>
<path style="fill:#bfc7d6; stroke:none;" d="M481 182L482 183L481 182z"/>
<path style="fill:#38517f; stroke:none;" d="M482 182L483 183L482 182z"/>
<path style="fill:#7284a4; stroke:none;" d="M665 182L666 183L665 182z"/>
<path style="fill:#bfc7d6; stroke:none;" d="M479 183L480 184L479 183z"/>
<path style="fill:#405884; stroke:none;" d="M480 183L481 184L480 183z"/>
<path style="fill:#7284a4; stroke:none;" d="M667 183L668 184L667 183z"/>
<path style="fill:#c7cedb; stroke:none;" d="M477 184L478 185L477 184z"/>
<path style="fill:#405884; stroke:none;" d="M478 184L479 185L478 184z"/>
<path style="fill:#7a8ba9; stroke:none;" d="M669 184L670 185L669 184z"/>
<path style="fill:#49608a; stroke:none;" d="M476 185L477 186L476 185z"/>
<path style="fill:#8393af; stroke:none;" d="M671 185L672 186L671 185z"/>
<path style="fill:#6f81a2; stroke:none;" d="M474 186L475 187L474 186z"/>
<path style="fill:#a9b4c8; stroke:none;" d="M673 186L674 187L673 186z"/>
<path style="fill:#94a1ba; stroke:none;" d="M472 187L473 188L472 187z"/>
<path style="fill:#3f5784; stroke:none;" d="M674 187L675 188L674 187z"/>
<path style="fill:#c0c8d6; stroke:none;" d="M470 188L471 189L470 188z"/>
<path style="fill:#677a9d; stroke:none;" d="M676 188L677 189L676 188z"/>
<path style="fill:#536990; stroke:none;" d="M469 189L470 190L469 189z"/>
<path style="fill:#96a3bb; stroke:none;" d="M678 189L679 190L678 189z"/>
<path style="fill:#8292af; stroke:none;" d="M467 190L468 191L467 190z"/>
<path style="fill:#c0c8d6; stroke:none;" d="M680 190L681 191L680 190z"/>
<path style="fill:#c2cad8; stroke:none;" d="M465 191L466 192L465 191z"/>
<path style="fill:#65789c; stroke:none;" d="M681 191L682 192L681 191z"/>
<path style="fill:#64779b; stroke:none;" d="M464 192L465 193L464 192z"/>
<path style="fill:#a2aec3; stroke:none;" d="M683 192L684 193L683 192z"/>
<path style="fill:#aab5c8; stroke:none;" d="M462 193L463 194L462 193z"/>
<path style="fill:#465d88; stroke:none;" d="M684 193L685 194L684 193M461 194L462 195L461 194z"/>
<path style="fill:#8d9bb6; stroke:none;" d="M686 194L687 195L686 194z"/>
<path style="fill:#8c9ab5; stroke:none;" d="M459 195L460 196L459 195z"/>
<path style="fill:#cbd2de; stroke:none;" d="M688 195L689 196L688 195z"/>
<path style="fill:#3a5380; stroke:none;" d="M458 196L459 197L458 196z"/>
<path style="fill:#8a99b4; stroke:none;" d="M689 196L690 197L689 196z"/>
<path style="fill:#b2bccd; stroke:none;" d="M456 197L457 198L456 197z"/>
<path style="fill:#3c5482; stroke:none;" d="M690 197L691 198L690 197z"/>
<path style="fill:#66799d; stroke:none;" d="M455 198L456 199L455 198z"/>
<path style="fill:#afb9cc; stroke:none;" d="M692 198L693 199L692 198z"/>
<path style="fill:#677a9d; stroke:none;" d="M693 199L694 200L693 199z"/>
<path style="fill:#8897b2; stroke:none;" d="M452 200L453 201L452 200z"/>
<path style="fill:#ccd2de; stroke:none;" d="M695 200L696 201L695 200z"/>
<path style="fill:#3a5380; stroke:none;" d="M451 201L452 202L451 201z"/>
<path style="fill:#8a99b4; stroke:none;" d="M696 201L697 202L696 201z"/>
<path style="fill:#c0c8d6; stroke:none;" d="M449 202L450 203L449 202z"/>
<path style="fill:#49608a; stroke:none;" d="M697 202L698 203L697 202z"/>
<path style="fill:#8796b2; stroke:none;" d="M448 203L449 204L448 203z"/>
<path style="fill:#546991; stroke:none;" d="M447 204L448 205L447 204z"/>
<path style="fill:#abb6c9; stroke:none;" d="M700 204L701 205L700 204z"/>
<path style="fill:#7082a3; stroke:none;" d="M701 205L702 206L701 205z"/>
<path style="fill:#abb6c9; stroke:none;" d="M444 206L445 207L444 206z"/>
<path style="fill:#364f7e; stroke:none;" d="M702 206L703 207L702 206z"/>
<path style="fill:#6f81a2; stroke:none;" d="M443 207L444 208L443 207z"/>
<path style="fill:#c0c8d6; stroke:none;" d="M704 207L705 208L704 207z"/>
<path style="fill:#475e89; stroke:none;" d="M442 208L443 209L442 208z"/>
<path style="fill:#9da9c0; stroke:none;" d="M705 208L706 209L705 208z"/>
<path style="fill:#334d7c; stroke:none;" d="M441 209L442 210L441 209z"/>
<path style="fill:#7e8eac; stroke:none;" d="M706 209L707 210L706 209z"/>
<path style="fill:#62769a; stroke:none;" d="M707 210L708 211L707 210z"/>
<path style="fill:#c3cbd8; stroke:none;" d="M438 211L439 212L438 211z"/>
<path style="fill:#49608a; stroke:none;" d="M708 211L709 212L708 211z"/>
<path style="fill:#adb7ca; stroke:none;" d="M437 212L438 213L437 212z"/>
<path style="fill:#8a99b4; stroke:none;" d="M436 213L437 214L436 213z"/>
<path style="fill:#697c9f; stroke:none;" d="M435 214L436 215L435 214z"/>
<path style="fill:#c7cedb; stroke:none;" d="M712 214L713 215L712 214z"/>
<path style="fill:#697c9f; stroke:none;" d="M434 215L435 216L434 215z"/>
<path style="fill:#bcc4d4; stroke:none;" d="M713 215L714 216L713 215z"/>
<path style="fill:#5b7096; stroke:none;" d="M433 216L434 217L433 216z"/>
<path style="fill:#b0bacc; stroke:none;" d="M714 216L715 217L714 216z"/>
<path style="fill:#4f658e; stroke:none;" d="M432 217L433 218L432 217z"/>
<path style="fill:#a4afc4; stroke:none;" d="M715 217L716 218L715 217z"/>
<path style="fill:#435b86; stroke:none;" d="M431 218L432 219L431 218z"/>
<path style="fill:#a4afc4; stroke:none;" d="M716 218L717 219L716 218z"/>
<path style="fill:#38517f; stroke:none;" d="M430 219L431 220L430 219z"/>
<path style="fill:#96a3bb; stroke:none;" d="M717 219L718 220L717 219z"/>
<path style="fill:#8796b2; stroke:none;" d="M718 220L719 221L718 220z"/>
<path style="fill:#354e7d; stroke:none;" d="M428 221L429 222L428 221z"/>
<path style="fill:#8796b2; stroke:none;" d="M719 221L720 222L719 221z"/>
<path style="fill:#405884; stroke:none;" d="M427 222L428 223L427 222z"/>
<path style="fill:#97a4bc; stroke:none;" d="M720 222L721 223L720 222z"/>
<path style="fill:#4c628c; stroke:none;" d="M426 223L427 224L426 223z"/>
<path style="fill:#a6b1c6; stroke:none;" d="M721 223L722 224L721 223z"/>
<path style="fill:#596e94; stroke:none;" d="M425 224L426 225L425 224z"/>
<path style="fill:#b3bdce; stroke:none;" d="M722 224L723 225L722 224z"/>
<path style="fill:#687b9e; stroke:none;" d="M424 225L425 226L424 225z"/>
<path style="fill:#bfc7d6; stroke:none;" d="M723 225L724 226L723 225z"/>
<path style="fill:#7788a8; stroke:none;" d="M423 226L424 227L423 226z"/>
<path style="fill:#cad1dd; stroke:none;" d="M724 226L725 227L724 226z"/>
<path style="fill:#8796b2; stroke:none;" d="M422 227L423 228L422 227z"/>
<path style="fill:#a3afc4; stroke:none;" d="M421 228L422 229L421 228z"/>
<path style="fill:#b1bbcd; stroke:none;" d="M420 229L421 230L420 229z"/>
<path style="fill:#c9d0dc; stroke:none;" d="M419 230L420 231L419 230z"/>
<path style="fill:#445b87; stroke:none;" d="M727 230L728 231L727 230z"/>
<path style="fill:#5f7398; stroke:none;" d="M728 231L729 232L728 231z"/>
<path style="fill:#6f81a2; stroke:none;" d="M729 232L730 233L729 232z"/>
<path style="fill:#364f7e; stroke:none;" d="M417 233L418 234L417 233z"/>
<path style="fill:#8f9db7; stroke:none;" d="M730 233L731 234L730 233z"/>
<path style="fill:#425a85; stroke:none;" d="M416 234L417 235L416 234z"/>
<path style="fill:#aeb8cb; stroke:none;" d="M731 234L732 235L731 234z"/>
<path style="fill:#5c7096; stroke:none;" d="M415 235L416 236L415 235z"/>
<path style="fill:#c7cedb; stroke:none;" d="M732 235L733 236L732 235z"/>
<path style="fill:#9fabc1; stroke:none;" d="M414 236L415 237L414 236z"/>
<path style="fill:#cdd3df; stroke:none;" d="M413 237L414 238L413 237z"/>
<path style="fill:#3e5683; stroke:none;" d="M733 237L734 238L733 237z"/>
<path style="fill:#7788a8; stroke:none;" d="M734 238L735 239L734 238z"/>
<path style="fill:#4b628b; stroke:none;" d="M412 239L413 240L412 239z"/>
<path style="fill:#b4bdcf; stroke:none;" d="M735 239L736 240L735 239z"/>
<path style="fill:#7788a8; stroke:none;" d="M411 240L412 241L411 240z"/>
<path style="fill:#b4bdcf; stroke:none;" d="M410 241L411 242L410 241z"/>
<path style="fill:#4b628b; stroke:none;" d="M737 242L738 243L737 242z"/>
<path style="fill:#97a4bc; stroke:none;" d="M738 243L739 244L738 243z"/>
<path style="fill:#7788a8; stroke:none;" d="M408 244L409 245L408 244z"/>
<path style="fill:#c7cedb; stroke:none;" d="M407 245L408 246L407 245z"/>
<path style="fill:#3a5380; stroke:none;" d="M739 245L740 246L739 245z"/>
<path style="fill:#8796b2; stroke:none;" d="M740 246L741 247L740 246z"/>
<path style="fill:#677a9d; stroke:none;" d="M406 247L407 248L406 247z"/>
<path style="fill:#b9c2d2; stroke:none;" d="M405 248L406 249L405 248z"/>
<path style="fill:#677a9d; stroke:none;" d="M742 249L743 250L742 249z"/>
<path style="fill:#576c93; stroke:none;" d="M404 250L405 251L404 250z"/>
<path style="fill:#b8c1d1; stroke:none;" d="M743 250L744 251L743 250z"/>
<path style="fill:#a7b2c6; stroke:none;" d="M403 251L404 252L403 251z"/>
<path style="fill:#677a9d; stroke:none;" d="M744 252L745 253L744 252z"/>
<path style="fill:#576c93; stroke:none;" d="M402 253L403 254L402 253z"/>
<path style="fill:#c1c9d7; stroke:none;" d="M745 253L746 254L745 253z"/>
<path style="fill:#afb9cc; stroke:none;" d="M401 254L402 255L401 254z"/>
<path style="fill:#7788a8; stroke:none;" d="M746 255L747 256L746 255z"/>
<path style="fill:#677a9d; stroke:none;" d="M400 256L401 257L400 256z"/>
<path style="fill:#c3cbd8; stroke:none;" d="M399 257L400 258L399 257z"/>
<path style="fill:#8796b2; stroke:none;" d="M748 258L749 259L748 258z"/>
<path style="fill:#7788a8; stroke:none;" d="M398 259L399 260L398 259z"/>
<path style="fill:#475e89; stroke:none;" d="M749 260L750 261L749 260z"/>
<path style="fill:#4f658e; stroke:none;" d="M397 261L398 262L397 261z"/>
<path style="fill:#b7c0d1; stroke:none;" d="M750 261L751 262L750 261M396 262L397 263L396 262z"/>
<path style="fill:#8f9db7; stroke:none;" d="M751 263L752 264L751 263z"/>
<path style="fill:#97a4bc; stroke:none;" d="M395 264L396 265L395 264z"/>
<path style="fill:#677a9d; stroke:none;" d="M752 265L753 266L752 265M394 266L395 267L394 266z"/>
<path style="fill:#455c87; stroke:none;" d="M753 267L754 268L753 267z"/>
<path style="fill:#475e89; stroke:none;" d="M393 268L394 269L393 268z"/>
<path style="fill:#afb9cc; stroke:none;" d="M754 268L755 269L754 268z"/>
<path style="fill:#bfc7d6; stroke:none;" d="M392 269L393 270L392 269z"/>
<path style="fill:#3f5784; stroke:none;" d="M392 270L393 271L392 270z"/>
<path style="fill:#a7b2c6; stroke:none;" d="M755 270L756 271L755 270z"/>
<path style="fill:#bfc7d6; stroke:none;" d="M391 271L392 272L391 271z"/>
<path style="fill:#3c5482; stroke:none;" d="M391 272L392 273L391 272z"/>
<path style="fill:#9fabc1; stroke:none;" d="M756 272L757 273L756 272z"/>
<path style="fill:#afb9cc; stroke:none;" d="M390 273L391 274L390 273z"/>
<path style="fill:#97a4bc; stroke:none;" d="M757 274L758 275L757 274z"/>
<path style="fill:#a7b2c6; stroke:none;" d="M389 275L390 276L389 275z"/>
<path style="fill:#8f9db7; stroke:none;" d="M758 276L759 277L758 276z"/>
<path style="fill:#a7b2c6; stroke:none;" d="M388 277L389 278L388 277z"/>
<path style="fill:#37507e; stroke:none;" d="M388 278L389 279L388 278z"/>
<path style="fill:#a7b2c6; stroke:none;" d="M759 278L760 279L759 278z"/>
<path style="fill:#c7cedb; stroke:none;" d="M387 279L388 280L387 279z"/>
<path style="fill:#99a6bd; stroke:none;" d="M646 279C648.693 290.31 647 303.407 647 315C650.104 307.603 648.004 296.005 648 288C647.998 284.683 648.604 281.276 646 279z"/>
<path style="fill:#37507e; stroke:none;" d="M759 279L760 280L759 279z"/>
<path style="fill:#576c93; stroke:none;" d="M387 280L388 281L387 280z"/>
<path style="fill:#a2aec3; stroke:none;" d="M644 280L645 281L644 280z"/>
<path style="fill:#ffffff; stroke:none;" d="M647 439L647 415C647 411.801 647.78 407.224 645.972 404.39C644.171 401.566 639.919 400.162 637 398.861C630.631 396.022 624.369 392.977 618 390.139C593.888 379.393 570.428 367.022 546 357C554.416 351.665 564.753 348.499 574 344.8C588.713 338.915 603.304 332.725 618 326.799L638 318.6C640.55 317.579 644.289 316.707 645.972 314.351C647.842 311.734 647 307.028 647 304L647 280C631.272 284.302 615.857 292.998 601 299.694C577.106 310.465 552.894 320.536 529 331.306C522.345 334.305 515.641 337.199 509 340.231C506.488 341.377 502.708 342.296 501.028 344.649C498.582 348.074 499.152 359.844 500.318 363.787C501.446 367.602 506.797 369.151 510 370.753L537 384.247L609 420.247C621.572 426.533 634.025 433.598 647 439z"/>
<path style="fill:#c7cedb; stroke:none;" d="M760 280L761 281L760 280z"/>
<path style="fill:#4f658e; stroke:none;" d="M641 281L642 282L641 281z"/>
<path style="fill:#c0c8d6; stroke:none;" d="M642 281L643 282L642 281z"/>
<path style="fill:#4f658e; stroke:none;" d="M760 281L761 282L760 281z"/>
<path style="fill:#7788a8; stroke:none;" d="M386 282L387 283L386 282z"/>
<path style="fill:#6e80a2; stroke:none;" d="M639 282L640 283L639 282z"/>
<path style="fill:#8c9ab5; stroke:none;" d="M637 283L638 284L637 283z"/>
<path style="fill:#677a9d; stroke:none;" d="M761 283L762 284L761 283z"/>
<path style="fill:#97a4bc; stroke:none;" d="M385 284L386 285L385 284z"/>
<path style="fill:#395280; stroke:none;" d="M634 284L635 285L634 284z"/>
<path style="fill:#aab5c8; stroke:none;" d="M635 284L636 285L635 284z"/>
<path style="fill:#586d94; stroke:none;" d="M632 285L633 286L632 285z"/>
<path style="fill:#c8cfdc; stroke:none;" d="M633 285L634 286L633 285z"/>
<path style="fill:#8796b2; stroke:none;" d="M762 285L763 286L762 285z"/>
<path style="fill:#b7c0d1; stroke:none;" d="M384 286L385 287L384 286z"/>
<path style="fill:#7687a7; stroke:none;" d="M630 286L631 287L630 286z"/>
<path style="fill:#4f658e; stroke:none;" d="M384 287L385 288L384 287z"/>
<path style="fill:#94a1ba; stroke:none;" d="M628 287L629 288L628 287z"/>
<path style="fill:#b7c0d1; stroke:none;" d="M763 287L764 288L763 287z"/>
<path style="fill:#415985; stroke:none;" d="M625 288L626 289L625 288z"/>
<path style="fill:#b2bccd; stroke:none;" d="M626 288L627 289L626 288z"/>
<path style="fill:#4f658e; stroke:none;" d="M763 288L764 289L763 288z"/>
<path style="fill:#8796b2; stroke:none;" d="M383 289L384 290L383 289z"/>
<path style="fill:#607499; stroke:none;" d="M623 289L624 290L623 289z"/>
<path style="fill:#7e8eac; stroke:none;" d="M621 290L622 291L621 290z"/>
<path style="fill:#8796b2; stroke:none;" d="M764 290L765 291L764 290z"/>
<path style="fill:#b7c0d1; stroke:none;" d="M382 291L383 292L382 291z"/>
<path style="fill:#9ca8bf; stroke:none;" d="M619 291L620 292L619 291z"/>
<path style="fill:#4f658e; stroke:none;" d="M382 292L383 293L382 292z"/>
<path style="fill:#4a618b; stroke:none;" d="M616 292L617 293L616 292z"/>
<path style="fill:#bbc4d3; stroke:none;" d="M617 292L618 293L617 292z"/>
<path style="fill:#bfc7d6; stroke:none;" d="M765 292L766 293L765 292z"/>
<path style="fill:#687b9e; stroke:none;" d="M614 293L615 294L614 293z"/>
<path style="fill:#576c93; stroke:none;" d="M765 293L766 294L765 293z"/>
<path style="fill:#8796b2; stroke:none;" d="M381 294L382 295L381 294z"/>
<path style="fill:#8695b1; stroke:none;" d="M612 294L613 295L612 294z"/>
<path style="fill:#a4afc4; stroke:none;" d="M610 295L611 296L610 295z"/>
<path style="fill:#8f9db7; stroke:none;" d="M766 295L767 296L766 295z"/>
<path style="fill:#526890; stroke:none;" d="M607 296L608 297L607 296z"/>
<path style="fill:#c3cbd8; stroke:none;" d="M608 296L609 297L608 296z"/>
<path style="fill:#37507e; stroke:none;" d="M766 296L767 297L766 296z"/>
<path style="fill:#7788a8; stroke:none;" d="M380 297L381 298L380 297z"/>
<path style="fill:#7082a3; stroke:none;" d="M605 297L606 298L605 297z"/>
<path style="fill:#8e9cb6; stroke:none;" d="M603 298L604 299L603 298z"/>
<path style="fill:#8796b2; stroke:none;" d="M767 298L768 299L767 298z"/>
<path style="fill:#c7cedb; stroke:none;" d="M379 299L380 300L379 299z"/>
<path style="fill:#3c5482; stroke:none;" d="M600 299L601 300L600 299z"/>
<path style="fill:#adb7ca; stroke:none;" d="M601 299L602 300L601 299z"/>
<path style="fill:#7788a8; stroke:none;" d="M379 300L380 301L379 300z"/>
<path style="fill:#5a6f95; stroke:none;" d="M598 300L599 301L598 300z"/>
<path style="fill:#cbd2de; stroke:none;" d="M599 300L600 301L599 300z"/>
<path style="fill:#7889a8; stroke:none;" d="M596 301L597 302L596 301z"/>
<path style="fill:#8796b2; stroke:none;" d="M768 301L769 302L768 301z"/>
<path style="fill:#c7cedb; stroke:none;" d="M378 302L379 303L378 302z"/>
<path style="fill:#97a4bc; stroke:none;" d="M594 302L595 303L594 302z"/>
<path style="fill:#6f81a2; stroke:none;" d="M378 303L379 304L378 303z"/>
<path style="fill:#445b87; stroke:none;" d="M591 303L592 304L591 303z"/>
<path style="fill:#b5becf; stroke:none;" d="M592 303L593 304L592 303z"/>
<path style="fill:#62769a; stroke:none;" d="M589 304L590 305L589 304z"/>
<path style="fill:#7f8fad; stroke:none;" d="M769 304L770 305L769 304z"/>
<path style="fill:#8191ae; stroke:none;" d="M587 305L588 306L587 305z"/>
<path style="fill:#37507e; stroke:none;" d="M769 305L770 306L769 305z"/>
<path style="fill:#8796b2; stroke:none;" d="M377 306L378 307L377 306z"/>
<path style="fill:#9fabc1; stroke:none;" d="M585 306L586 307L585 306z"/>
<path style="fill:#3f5784; stroke:none;" d="M377 307L378 308L377 307z"/>
<path style="fill:#4c628c; stroke:none;" d="M582 307L583 308L582 307z"/>
<path style="fill:#bdc5d5; stroke:none;" d="M583 307L584 308L583 307z"/>
<path style="fill:#a7b2c6; stroke:none;" d="M770 307L771 308L770 307z"/>
<path style="fill:#6b7ea0; stroke:none;" d="M580 308L581 309L580 308z"/>
<path style="fill:#576c93; stroke:none;" d="M770 308L771 309L770 308z"/>
<path style="fill:#a7b2c6; stroke:none;" d="M376 309L377 310L376 309z"/>
<path style="fill:#8998b3; stroke:none;" d="M578 309L579 310L578 309z"/>
<path style="fill:#5f7398; stroke:none;" d="M376 310L377 311L376 310z"/>
<path style="fill:#344d7c; stroke:none;" d="M575 310L576 311L575 310z"/>
<path style="fill:#a7b2c6; stroke:none;" d="M576 310L577 311L576 310z"/>
<path style="fill:#c7cedb; stroke:none;" d="M771 310L772 311L771 310z"/>
<path style="fill:#546991; stroke:none;" d="M573 311L574 312L573 311z"/>
<path style="fill:#c5ccda; stroke:none;" d="M574 311L575 312L574 311z"/>
<path style="fill:#7f8fad; stroke:none;" d="M771 311L772 312L771 311z"/>
<path style="fill:#7385a5; stroke:none;" d="M571 312L572 313L571 312z"/>
<path style="fill:#37507e; stroke:none;" d="M771 312L772 313L771 312z"/>
<path style="fill:#8796b2; stroke:none;" d="M375 313L376 314L375 313z"/>
<path style="fill:#919fb8; stroke:none;" d="M569 313L570 314L569 313z"/>
<path style="fill:#3f5784; stroke:none;" d="M375 314L376 315L375 314z"/>
<path style="fill:#3e5683; stroke:none;" d="M566 314L567 315L566 314z"/>
<path style="fill:#b1bbcd; stroke:none;" d="M567 314L568 315L567 314z"/>
<path style="fill:#a7b2c6; stroke:none;" d="M772 314L773 315L772 314z"/>
<path style="fill:#5d7197; stroke:none;" d="M564 315L565 316L564 315z"/>
<path style="fill:#cdd3df; stroke:none;" d="M565 315L566 316L565 315z"/>
<path style="fill:#9ba8bf; stroke:none;" d="M645 315L646 316L645 315z"/>
<path style="fill:#6f81a2; stroke:none;" d="M772 315L773 316L772 315z"/>
<path style="fill:#7b8caa; stroke:none;" d="M562 316L563 317L562 316z"/>
<path style="fill:#6d7fa1; stroke:none;" d="M643 316L644 317L643 316z"/>
<path style="fill:#8f9db7; stroke:none;" d="M374 317L375 318L374 317z"/>
<path style="fill:#99a6bd; stroke:none;" d="M560 317L561 318L560 317z"/>
<path style="fill:#a8b3c7; stroke:none;" d="M640 317L641 318L640 317z"/>
<path style="fill:#3f5784; stroke:none;" d="M641 317L642 318L641 317z"/>
<path style="fill:#576c93; stroke:none;" d="M374 318L375 319L374 318z"/>
<path style="fill:#475e89; stroke:none;" d="M557 318L558 319L557 318z"/>
<path style="fill:#b7c0d1; stroke:none;" d="M558 318L559 319L558 318z"/>
<path style="fill:#798aa9; stroke:none;" d="M638 318L639 319L638 318z"/>
<path style="fill:#bfc7d6; stroke:none;" d="M773 318L774 319L773 318z"/>
<path style="fill:#65789c; stroke:none;" d="M555 319L556 320L555 319z"/>
<path style="fill:#b4bdcf; stroke:none;" d="M635 319L636 320L635 319z"/>
<path style="fill:#4b628b; stroke:none;" d="M636 319L637 320L636 319z"/>
<path style="fill:#7f8fad; stroke:none;" d="M773 319L774 320L773 319z"/>
<path style="fill:#8393af; stroke:none;" d="M553 320L554 321L553 320z"/>
<path style="fill:#8594b1; stroke:none;" d="M633 320L634 321L633 320z"/>
<path style="fill:#475e89; stroke:none;" d="M773 320L774 321L773 320z"/>
<path style="fill:#9fabc1; stroke:none;" d="M373 321L374 322L373 321z"/>
<path style="fill:#a1adc3; stroke:none;" d="M551 321L552 322L551 321z"/>
<path style="fill:#c0c8d6; stroke:none;" d="M630 321L631 322L630 321z"/>
<path style="fill:#576c93; stroke:none;" d="M631 321L632 322L631 321z"/>
<path style="fill:#677a9d; stroke:none;" d="M373 322L374 323L373 322z"/>
<path style="fill:#4f658e; stroke:none;" d="M548 322L549 323L548 322z"/>
<path style="fill:#c0c8d6; stroke:none;" d="M549 322L550 323L549 322z"/>
<path style="fill:#92a0b9; stroke:none;" d="M628 322L629 323L628 322z"/>
<path style="fill:#6d7fa1; stroke:none;" d="M546 323L547 324L546 323z"/>
<path style="fill:#ccd2de; stroke:none;" d="M625 323L626 324L625 323z"/>
<path style="fill:#63779b; stroke:none;" d="M626 323L627 324L626 323z"/>
<path style="fill:#97a4bc; stroke:none;" d="M774 323L775 324L774 323z"/>
<path style="fill:#8b9ab4; stroke:none;" d="M544 324L545 325L544 324z"/>
<path style="fill:#9eaac1; stroke:none;" d="M623 324L624 325L623 324z"/>
<path style="fill:#354e7d; stroke:none;" d="M624 324L625 325L624 324z"/>
<path style="fill:#2f4979; stroke:none;" d="M774.333 324.667C774.278 324.722 774.222 325.778 774.667 325.333C774.722 325.278 774.778 324.222 774.333 324.667z"/>
<path style="fill:#97a4bc; stroke:none;" d="M372 325L372 328C372.696 326.446 372.696 326.554 372 325z"/>
<path style="fill:#395280; stroke:none;" d="M541 325L542 326L541 325z"/>
<path style="fill:#aab5c8; stroke:none;" d="M542 325L543 326L542 325z"/>
<path style="fill:#6f81a2; stroke:none;" d="M621 325L622 326L621 325z"/>
<path style="fill:#576c93; stroke:none;" d="M539 326L540 327L539 326z"/>
<path style="fill:#c8cfdc; stroke:none;" d="M540 326L541 327L540 326z"/>
<path style="fill:#aab5c8; stroke:none;" d="M618 326L619 327L618 326z"/>
<path style="fill:#415985; stroke:none;" d="M619 326L620 327L619 326z"/>
<path style="fill:#7586a6; stroke:none;" d="M537 327L538 328L537 327z"/>
<path style="fill:#7c8cab; stroke:none;" d="M616 327L617 328L616 327z"/>
<path style="fill:#94a1ba; stroke:none;" d="M535 328L536 329L535 328z"/>
<path style="fill:#b6bfd0; stroke:none;" d="M613 328L614 329L613 328z"/>
<path style="fill:#4d638d; stroke:none;" d="M614 328L615 329L614 328z"/>
<path style="fill:#7788a8; stroke:none;" d="M775 328L775 331C775.696 329.446 775.696 329.554 775 328z"/>
<path style="fill:#415985; stroke:none;" d="M532 329L533 330L532 329z"/>
<path style="fill:#b2bccd; stroke:none;" d="M533 329L534 330L533 329z"/>
<path style="fill:#8897b2; stroke:none;" d="M611 329L612 330L611 329z"/>
<path style="fill:#5f7398; stroke:none;" d="M530 330L531 331L530 330z"/>
<path style="fill:#c2cad8; stroke:none;" d="M608 330L609 331L608 330z"/>
<path style="fill:#596e94; stroke:none;" d="M609 330L610 331L609 330z"/>
<path style="fill:#8796b2; stroke:none;" d="M371 331L371 334C371.696 332.446 371.696 332.554 371 331z"/>
<path style="fill:#7d8dab; stroke:none;" d="M528 331L529 332L528 331z"/>
<path style="fill:#94a1ba; stroke:none;" d="M606 331L607 332L606 331z"/>
<path style="fill:#9ca8bf; stroke:none;" d="M526 332L527 333L526 332z"/>
<path style="fill:#66799d; stroke:none;" d="M604 332L605 333L604 332z"/>
<path style="fill:#49608a; stroke:none;" d="M523 333L524 334L523 333z"/>
<path style="fill:#bac3d3; stroke:none;" d="M524 333L525 334L524 333z"/>
<path style="fill:#a0acc2; stroke:none;" d="M601 333L602 334L601 333z"/>
<path style="fill:#37507e; stroke:none;" d="M602 333L603 334L602 333z"/>
<path style="fill:#97a4bc; stroke:none;" d="M776.333 333.667C776.278 333.722 776.222 334.778 776.667 334.333C776.722 334.278 776.778 333.222 776.333 333.667z"/>
<path style="fill:#677a9d; stroke:none;" d="M521 334L522 335L521 334z"/>
<path style="fill:#7284a4; stroke:none;" d="M599 334L600 335L599 334z"/>
<path style="fill:#8695b1; stroke:none;" d="M519 335L520 336L519 335z"/>
<path style="fill:#acb6ca; stroke:none;" d="M596 335L597 336L596 335z"/>
<path style="fill:#435b86; stroke:none;" d="M597 335L598 336L597 335z"/>
<path style="fill:#4f658e; stroke:none;" d="M776.333 335.667C776.278 335.722 776.222 336.778 776.667 336.333C776.722 336.278 776.778 335.222 776.333 335.667z"/>
<path style="fill:#a4afc4; stroke:none;" d="M517 336L518 337L517 336z"/>
<path style="fill:#7e8eac; stroke:none;" d="M594 336L595 337L594 336z"/>
<path style="fill:#9fabc1; stroke:none;" d="M370 337L370 340C370.696 338.446 370.696 338.554 370 337z"/>
<path style="fill:#51678f; stroke:none;" d="M514 337L515 338L514 337z"/>
<path style="fill:#c2cad8; stroke:none;" d="M515 337L516 338L515 337z"/>
<path style="fill:#b8c1d1; stroke:none;" d="M591 337L592 338L591 337z"/>
<path style="fill:#50668e; stroke:none;" d="M592 337L593 338L592 337z"/>
<path style="fill:#7082a3; stroke:none;" d="M512 338L513 339L512 338z"/>
<path style="fill:#8a99b4; stroke:none;" d="M589 338L590 339L589 338z"/>
<path style="fill:#8e9cb6; stroke:none;" d="M510 339L511 340L510 339z"/>
<path style="fill:#c5ccda; stroke:none;" d="M586 339L587 340L586 339z"/>
<path style="fill:#5c7096; stroke:none;" d="M587 339L588 340L587 339z"/>
<path style="fill:#3f5784; stroke:none;" d="M370.333 340.667C370.278 340.722 370.222 341.778 370.667 341.333C370.722 341.278 370.778 340.222 370.333 340.667z"/>
<path style="fill:#3b5481; stroke:none;" d="M507 340L508 341L507 340z"/>
<path style="fill:#acb6ca; stroke:none;" d="M508 340L509 341L508 340z"/>
<path style="fill:#96a3bb; stroke:none;" d="M584 340L585 341L584 340z"/>
<path style="fill:#afb9cc; stroke:none;" d="M777 340L777 343C777.696 341.446 777.696 341.554 777 340z"/>
<path style="fill:#5a6f95; stroke:none;" d="M505 341L506 342L505 341z"/>
<path style="fill:#cad1dd; stroke:none;" d="M506 341L507 342L506 341z"/>
<path style="fill:#687b9e; stroke:none;" d="M582 341L583 342L582 341z"/>
<path style="fill:#7889a8; stroke:none;" d="M503 342L504 343L503 342z"/>
<path style="fill:#a2aec3; stroke:none;" d="M579 342L580 343L579 342z"/>
<path style="fill:#3a5380; stroke:none;" d="M580 342L581 343L580 342z"/>
<path style="fill:#96a3bb; stroke:none;" d="M501 343L502 344L501 343z"/>
<path style="fill:#7485a6; stroke:none;" d="M577 343L578 344L577 343z"/>
<path style="fill:#4c628c; stroke:none;" d="M777 343L777 346C777.696 344.446 777.696 344.554 777 343z"/>
<path style="fill:#677a9d; stroke:none;" d="M499 344L499 366C501.219 360.713 501.219 349.287 499 344z"/>
<path style="fill:#adb7ca; stroke:none;" d="M574 344L575 345L574 344z"/>
<path style="fill:#455c87; stroke:none;" d="M575 344L576 345L575 344z"/>
<path style="fill:#b7c0d1; stroke:none;" d="M369.333 345.667C369.278 345.722 369.222 346.778 369.667 346.333C369.722 346.278 369.778 345.222 369.333 345.667z"/>
<path style="fill:#8090ad; stroke:none;" d="M572 345L573 346L572 345z"/>
<path style="fill:#bbc4d3; stroke:none;" d="M569 346L570 347L569 346z"/>
<path style="fill:#526890; stroke:none;" d="M570 346L571 347L570 346z"/>
<path style="fill:#97a4bc; stroke:none;" d="M369 347L369 350C369.696 348.446 369.696 348.554 369 347z"/>
<path style="fill:#8c9ab5; stroke:none;" d="M567 347L568 348L567 347z"/>
<path style="fill:#c7cedb; stroke:none;" d="M564 348L565 349L564 348z"/>
<path style="fill:#5e7297; stroke:none;" d="M565 348L566 349L565 348z"/>
<path style="fill:#99a6bd; stroke:none;" d="M562 349L563 350L562 349z"/>
<path style="fill:#dfe3ea; stroke:none;" d="M778 349L778 352C778.696 350.446 778.696 350.554 778 349z"/>
<path style="fill:#576c93; stroke:none;" d="M369 350L369 353C369.696 351.446 369.696 351.554 369 350z"/>
<path style="fill:#6a7d9f; stroke:none;" d="M560 350L561 351L560 350z"/>
<path style="fill:#a5b0c5; stroke:none;" d="M557 351L558 352L557 351z"/>
<path style="fill:#3c5482; stroke:none;" d="M558 351L559 352L558 351z"/>
<path style="fill:#7687a7; stroke:none;" d="M555 352L556 353L555 352z"/>
<path style="fill:#acb6ca; stroke:none;" d="M778 352L778 355C778.696 353.446 778.696 353.554 778 352z"/>
<path style="fill:#b1bbcd; stroke:none;" d="M552 353L553 354L552 353z"/>
<path style="fill:#485f89; stroke:none;" d="M553 353L554 354L553 353z"/>
<path style="fill:#8393af; stroke:none;" d="M550 354L551 355L550 354z"/>
<path style="fill:#bdc5d5; stroke:none;" d="M547 355L548 356L547 355z"/>
<path style="fill:#546991; stroke:none;" d="M548 355L549 356L548 355z"/>
<path style="fill:#7f8fad; stroke:none;" d="M778 355L778 361C778.951 358.715 778.951 357.285 778 355z"/>
<path style="fill:#415985; stroke:none;" d="M546 356L547 357L546 356z"/>
<path style="fill:#a4afc4; stroke:none;" d="M547 357L548 358L547 357z"/>
<path style="fill:#b7c0d1; stroke:none;" d="M549 358L550 359L549 358z"/>
<path style="fill:#405884; stroke:none;" d="M550 358L551 359L550 358z"/>
<path style="fill:#c9d0dc; stroke:none;" d="M551 359L552 360L551 359z"/>
<path style="fill:#536990; stroke:none;" d="M552 359L553 360L552 359z"/>
<path style="fill:#66799d; stroke:none;" d="M554 360L555 361L554 360z"/>
<path style="fill:#7889a8; stroke:none;" d="M556 361L557 362L556 361z"/>
<path style="fill:#65789c; stroke:none;" d="M778 361L778 368C779.059 365.466 779.059 363.534 778 361z"/>
<path style="fill:#8b9ab4; stroke:none;" d="M558 362L559 363L558 362z"/>
<path style="fill:#9eaac1; stroke:none;" d="M560 363L561 364L560 363z"/>
<path style="fill:#b0bacc; stroke:none;" d="M562 364L563 365L562 364z"/>
<path style="fill:#344d7c; stroke:none;" d="M563 364L564 365L563 364z"/>
<path style="fill:#c2cad8; stroke:none;" d="M564 365L565 366L564 365z"/>
<path style="fill:#4c628c; stroke:none;" d="M565 365L566 366L565 365z"/>
<path style="fill:#b2bccd; stroke:none;" d="M501 366L502 367L501 366z"/>
<path style="fill:#5f7398; stroke:none;" d="M567 366L568 367L567 366z"/>
<path style="fill:#b1bbcd; stroke:none;" d="M503 367L504 368L503 367z"/>
<path style="fill:#7284a4; stroke:none;" d="M569 367L570 368L569 367z"/>
<path style="fill:#b0bacc; stroke:none;" d="M505 368L506 369L505 368z"/>
<path style="fill:#8493b0; stroke:none;" d="M571 368L572 369L571 368z"/>
<path style="fill:#7f8fad; stroke:none;" d="M778 368L778 374C778.951 371.715 778.951 370.285 778 368z"/>
<path style="fill:#b0bacc; stroke:none;" d="M507 369L508 370L507 369z"/>
<path style="fill:#97a4bc; stroke:none;" d="M573 369L574 370L573 369z"/>
<path style="fill:#afb9cc; stroke:none;" d="M509 370L510 371L509 370z"/>
<path style="fill:#aab5c8; stroke:none;" d="M575 370L576 371L575 370z"/>
<path style="fill:#aeb8cb; stroke:none;" d="M511 371L512 372L511 371z"/>
<path style="fill:#bcc4d4; stroke:none;" d="M577 371L578 372L577 371z"/>
<path style="fill:#465d88; stroke:none;" d="M578 371L579 372L578 371z"/>
<path style="fill:#adb7ca; stroke:none;" d="M513 372L514 373L513 372z"/>
<path style="fill:#586d94; stroke:none;" d="M580 372L581 373L580 372z"/>
<path style="fill:#acb6ca; stroke:none;" d="M515 373L516 374L515 373z"/>
<path style="fill:#6b7ea0; stroke:none;" d="M582 373L583 374L582 373z"/>
<path style="fill:#abb6c9; stroke:none;" d="M517 374L518 375L517 374z"/>
<path style="fill:#7e8eac; stroke:none;" d="M584 374L585 375L584 374z"/>
<path style="fill:#92a0b9; stroke:none;" d="M778 374L778 378C778.71 376.24 778.71 375.759 778 374z"/>
<path style="fill:#aab5c8; stroke:none;" d="M519 375L520 376L519 375z"/>
<path style="fill:#909eb8; stroke:none;" d="M586 375L587 376L586 375z"/>
<path style="fill:#aab5c8; stroke:none;" d="M521 376L522 377L521 376z"/>
<path style="fill:#a3afc4; stroke:none;" d="M588 376L589 377L588 376z"/>
<path style="fill:#37507e; stroke:none;" d="M369.333 377.667C369.278 377.722 369.222 378.778 369.667 378.333C369.722 378.278 369.778 377.222 369.333 377.667z"/>
<path style="fill:#a9b4c8; stroke:none;" d="M523 377L524 378L523 377z"/>
<path style="fill:#b6bfd0; stroke:none;" d="M590 377L591 378L590 377z"/>
<path style="fill:#3f5784; stroke:none;" d="M591 377L592 378L591 377z"/>
<path style="fill:#a8b3c7; stroke:none;" d="M525 378L526 379L525 378z"/>
<path style="fill:#c8cfdc; stroke:none;" d="M592 378L593 379L592 378z"/>
<path style="fill:#526890; stroke:none;" d="M593 378L594 379L593 378z"/>
<path style="fill:#dfe3ea; stroke:none;" d="M778 378L778 382C778.71 380.241 778.71 379.759 778 378z"/>
<path style="fill:#677a9d; stroke:none;" d="M369.333 379.667C369.278 379.722 369.222 380.778 369.667 380.333C369.722 380.278 369.778 379.222 369.333 379.667z"/>
<path style="fill:#a7b2c6; stroke:none;" d="M527 379L528 380L527 379z"/>
<path style="fill:#64779b; stroke:none;" d="M595 379L596 380L595 379z"/>
<path style="fill:#a6b1c6; stroke:none;" d="M529 380L530 381L529 380z"/>
<path style="fill:#7788a8; stroke:none;" d="M597 380L598 381L597 380z"/>
<path style="fill:#8796b2; stroke:none;" d="M369 381L369 384C369.696 382.446 369.696 382.554 369 381z"/>
<path style="fill:#a5b0c5; stroke:none;" d="M531 381L532 382L531 381z"/>
<path style="fill:#8a99b4; stroke:none;" d="M599 381L600 382L599 381z"/>
<path style="fill:#a4afc4; stroke:none;" d="M533 382L534 383L533 382z"/>
<path style="fill:#9da9c0; stroke:none;" d="M601 382L602 383L601 382z"/>
<path style="fill:#a3afc4; stroke:none;" d="M535 383L536 384L535 383z"/>
<path style="fill:#afb9cc; stroke:none;" d="M603 383L604 384L603 383z"/>
<path style="fill:#344d7c; stroke:none;" d="M604 383L605 384L604 383z"/>
<path style="fill:#bfc7d6; stroke:none;" d="M369.333 384.667C369.278 384.722 369.222 385.778 369.667 385.333C369.722 385.278 369.778 384.222 369.333 384.667z"/>
<path style="fill:#a3afc4; stroke:none;" d="M537 384L538 385L537 384z"/>
<path style="fill:#c2cad8; stroke:none;" d="M605 384L606 385L605 384z"/>
<path style="fill:#4b628b; stroke:none;" d="M606 384L607 385L606 384z"/>
<path style="fill:#274274; stroke:none;" d="M777 384L777 387C777.696 385.446 777.696 385.554 777 384z"/>
<path style="fill:#a2aec3; stroke:none;" d="M539 385L540 386L539 385z"/>
<path style="fill:#5e7297; stroke:none;" d="M608 385L609 386L608 385z"/>
<path style="fill:#a1adc3; stroke:none;" d="M541 386L542 387L541 386z"/>
<path style="fill:#7183a4; stroke:none;" d="M610 386L611 387L610 386z"/>
<path style="fill:#a0acc2; stroke:none;" d="M543 387L544 388L543 387z"/>
<path style="fill:#8393af; stroke:none;" d="M612 387L613 388L612 387z"/>
<path style="fill:#7f8fad; stroke:none;" d="M777 387L777 390C777.696 388.446 777.696 388.554 777 387z"/>
<path style="fill:#9fabc1; stroke:none;" d="M545 388L546 389L545 388z"/>
<path style="fill:#96a3bb; stroke:none;" d="M614 388L615 389L614 388z"/>
<path style="fill:#4f658e; stroke:none;" d="M370 389L370 392C370.696 390.446 370.696 390.554 370 389z"/>
<path style="fill:#9eaac1; stroke:none;" d="M547 389L548 390L547 389z"/>
<path style="fill:#a9b4c8; stroke:none;" d="M616 389L617 390L616 389z"/>
<path style="fill:#9da9c0; stroke:none;" d="M549 390L550 391L549 390z"/>
<path style="fill:#bbc4d3; stroke:none;" d="M618 390L619 391L618 390z"/>
<path style="fill:#455c87; stroke:none;" d="M619 390L620 391L619 390z"/>
<path style="fill:#dfe3ea; stroke:none;" d="M777.333 390.667C777.278 390.722 777.222 391.778 777.667 391.333C777.722 391.278 777.778 390.222 777.333 390.667z"/>
<path style="fill:#9da9c0; stroke:none;" d="M551 391L552 392L551 391z"/>
<path style="fill:#576c93; stroke:none;" d="M621 391L622 392L621 391z"/>
<path style="fill:#afb9cc; stroke:none;" d="M370 392L370 395C370.696 393.446 370.696 393.554 370 392z"/>
<path style="fill:#9ca8bf; stroke:none;" d="M553 392L554 393L553 392z"/>
<path style="fill:#6a7d9f; stroke:none;" d="M623 392L624 393L623 392z"/>
<path style="fill:#9ba8bf; stroke:none;" d="M555 393L556 394L555 393z"/>
<path style="fill:#7d8dab; stroke:none;" d="M625 393L626 394L625 393z"/>
<path style="fill:#9aa7be; stroke:none;" d="M557 394L558 395L557 394z"/>
<path style="fill:#8f9db7; stroke:none;" d="M627 394L628 395L627 394z"/>
<path style="fill:#5f7398; stroke:none;" d="M776 394L776 397C776.696 395.446 776.696 395.554 776 394z"/>
<path style="fill:#99a6bd; stroke:none;" d="M559 395L560 396L559 395z"/>
<path style="fill:#a2aec3; stroke:none;" d="M629 395L630 396L629 395z"/>
<path style="fill:#98a5bd; stroke:none;" d="M561 396L562 397L561 396z"/>
<path style="fill:#b5becf; stroke:none;" d="M631 396L632 397L631 396z"/>
<path style="fill:#3e5683; stroke:none;" d="M632 396L633 397L632 396z"/>
<path style="fill:#677a9d; stroke:none;" d="M371 397L371 400C371.696 398.446 371.696 398.554 371 397z"/>
<path style="fill:#97a4bc; stroke:none;" d="M563 397L564 398L563 397z"/>
<path style="fill:#c7cedb; stroke:none;" d="M633 397L634 398L633 397z"/>
<path style="fill:#51678f; stroke:none;" d="M634 397L635 398L634 397z"/>
<path style="fill:#d7dce5; stroke:none;" d="M776.333 397.667C776.278 397.722 776.222 398.778 776.667 398.333C776.722 398.278 776.778 397.222 776.333 397.667z"/>
<path style="fill:#97a4bc; stroke:none;" d="M565 398L566 399L565 398z"/>
<path style="fill:#63779b; stroke:none;" d="M636 398L637 399L636 398z"/>
<path style="fill:#96a3bb; stroke:none;" d="M567 399L568 400L567 399z"/>
<path style="fill:#7687a7; stroke:none;" d="M638 399L639 400L638 399z"/>
<path style="fill:#95a2bb; stroke:none;" d="M569 400L570 401L569 400z"/>
<path style="fill:#8998b3; stroke:none;" d="M640 400L641 401L640 400z"/>
<path style="fill:#5f7398; stroke:none;" d="M775 400L775 403C775.696 401.446 775.696 401.554 775 400z"/>
<path style="fill:#94a1ba; stroke:none;" d="M571 401L572 402L571 401z"/>
<path style="fill:#9ba8bf; stroke:none;" d="M642 401L643 402L642 401z"/>
<path style="fill:#93a1ba; stroke:none;" d="M573 402L574 403L573 402z"/>
<path style="fill:#aeb8cb; stroke:none;" d="M644 402L645 403L644 402z"/>
<path style="fill:#344d7c; stroke:none;" d="M645 402L646 403L645 402z"/>
<path style="fill:#8796b2; stroke:none;" d="M372.333 403.667C372.278 403.722 372.222 404.778 372.667 404.333C372.722 404.278 372.778 403.222 372.333 403.667z"/>
<path style="fill:#96a3bb; stroke:none;" d="M575 403L576 404L575 403z"/>
<path style="fill:#c2cad8; stroke:none;" d="M646 403L647 404L646 403z"/>
<path style="fill:#37507e; stroke:none;" d="M647 403L648 404L647 403z"/>
<path style="fill:#919fb8; stroke:none;" d="M577 404L578 405L577 404z"/>
<path style="fill:#99a6bd; stroke:none;" d="M647 404L647 439C649.802 432.322 648 422.216 648 415C648 411.298 648.441 407.435 647 404z"/>
<path style="fill:#d7dce5; stroke:none;" d="M372.333 405.667C372.278 405.722 372.222 406.778 372.667 406.333C372.722 406.278 372.778 405.222 372.333 405.667z"/>
<path style="fill:#909eb8; stroke:none;" d="M579 405L580 406L579 405M581 406L582 407L581 406z"/>
<path style="fill:#475e89; stroke:none;" d="M774 406L775 407L774 406z"/>
<path style="fill:#8f9db7; stroke:none;" d="M583 407L584 408L583 407z"/>
<path style="fill:#7f8fad; stroke:none;" d="M774 407L775 408L774 407z"/>
<path style="fill:#4f658e; stroke:none;" d="M373 408L374 409L373 408z"/>
<path style="fill:#8e9cb6; stroke:none;" d="M585 408L586 409L585 408z"/>
<path style="fill:#b7c0d1; stroke:none;" d="M774 408L775 409L774 408z"/>
<path style="fill:#8796b2; stroke:none;" d="M373 409L374 410L373 409z"/>
<path style="fill:#8d9bb6; stroke:none;" d="M587 409L588 410L587 409z"/>
<path style="fill:#bfc7d6; stroke:none;" d="M373 410L374 411L373 410z"/>
<path style="fill:#8c9ab5; stroke:none;" d="M589 410L590 411L589 410z"/>
<path style="fill:#8b9ab4; stroke:none;" d="M591 411L592 412L591 411z"/>
<path style="fill:#677a9d; stroke:none;" d="M773 411L774 412L773 411z"/>
<path style="fill:#37507e; stroke:none;" d="M374 412L375 413L374 412z"/>
<path style="fill:#8a99b4; stroke:none;" d="M593 412L594 413L593 412z"/>
<path style="fill:#9fabc1; stroke:none;" d="M773 412L774 413L773 412z"/>
<path style="fill:#6f81a2; stroke:none;" d="M374 413L375 414L374 413z"/>
<path style="fill:#8a99b4; stroke:none;" d="M595 413L596 414L595 413z"/>
<path style="fill:#afb9cc; stroke:none;" d="M374 414L375 415L374 414z"/>
<path style="fill:#8998b3; stroke:none;" d="M597 414L598 415L597 414z"/>
<path style="fill:#8897b2; stroke:none;" d="M599 415L600 416L599 415z"/>
<path style="fill:#4f658e; stroke:none;" d="M772 415L773 416L772 415z"/>
<path style="fill:#8796b2; stroke:none;" d="M601 416L602 417L601 416z"/>
<path style="fill:#8f9db7; stroke:none;" d="M772 416L773 417L772 416z"/>
<path style="fill:#677a9d; stroke:none;" d="M375 417L376 418L375 417z"/>
<path style="fill:#8695b1; stroke:none;" d="M603 417L604 418L603 417z"/>
<path style="fill:#c7cedb; stroke:none;" d="M772 417L773 418L772 417z"/>
<path style="fill:#afb9cc; stroke:none;" d="M375 418L376 419L375 418z"/>
<path style="fill:#8594b1; stroke:none;" d="M605 418L606 419L605 418z"/>
<path style="fill:#8493b0; stroke:none;" d="M607 419L608 420L607 419z"/>
<path style="fill:#5f7398; stroke:none;" d="M771 419L772 420L771 419z"/>
<path style="fill:#3f5784; stroke:none;" d="M376 420L377 421L376 420z"/>
<path style="fill:#8493b0; stroke:none;" d="M609 420L610 421L609 420z"/>
<path style="fill:#a7b2c6; stroke:none;" d="M771 420L772 421L771 420z"/>
<path style="fill:#8796b2; stroke:none;" d="M376 421L377 422L376 421z"/>
<path style="fill:#8393af; stroke:none;" d="M611 421L612 422L611 421z"/>
<path style="fill:#8292af; stroke:none;" d="M613 422L614 423L613 422z"/>
<path style="fill:#37507e; stroke:none;" d="M770 422L771 423L770 422z"/>
<path style="fill:#8191ae; stroke:none;" d="M615 423L616 424L615 423z"/>
<path style="fill:#7f8fad; stroke:none;" d="M770 423L771 424L770 423z"/>
<path style="fill:#5f7398; stroke:none;" d="M377 424L378 425L377 424z"/>
<path style="fill:#8090ad; stroke:none;" d="M617 424L618 425L617 424z"/>
<path style="fill:#c7cedb; stroke:none;" d="M770 424L771 425L770 424z"/>
<path style="fill:#a7b2c6; stroke:none;" d="M377 425L378 426L377 425z"/>
<path style="fill:#7f8fad; stroke:none;" d="M619 425L620 426L619 425z"/>
<path style="fill:#7e8eac; stroke:none;" d="M621 426L622 427L621 426z"/>
<path style="fill:#5a6f95; stroke:none;" d="M769 426L770 427L769 426z"/>
<path style="fill:#475e89; stroke:none;" d="M378 427L379 428L378 427z"/>
<path style="fill:#7d8dab; stroke:none;" d="M623 427L624 428L623 427z"/>
<path style="fill:#a7b2c6; stroke:none;" d="M769 427L770 428L769 427z"/>
<path style="fill:#97a4bc; stroke:none;" d="M378 428L379 429L378 428z"/>
<path style="fill:#7d8dab; stroke:none;" d="M625 428L626 429L625 428z"/>
<path style="fill:#7c8cab; stroke:none;" d="M627 429L628 430L627 429z"/>
<path style="fill:#576c93; stroke:none;" d="M768 429L769 430L768 429z"/>
<path style="fill:#475e89; stroke:none;" d="M379 430L380 431L379 430z"/>
<path style="fill:#7b8caa; stroke:none;" d="M629 430L630 431L629 430z"/>
<path style="fill:#afb9cc; stroke:none;" d="M768 430L769 431L768 430z"/>
<path style="fill:#9fabc1; stroke:none;" d="M379 431L380 432L379 431z"/>
<path style="fill:#7a8ba9; stroke:none;" d="M631 431L632 432L631 431z"/>
<path style="fill:#798aa9; stroke:none;" d="M633 432L634 433L633 432z"/>
<path style="fill:#5f7398; stroke:none;" d="M767 432L768 433L767 432z"/>
<path style="fill:#4f658e; stroke:none;" d="M380 433L381 434L380 433z"/>
<path style="fill:#7889a8; stroke:none;" d="M635 433L636 434L635 433z"/>
<path style="fill:#b7c0d1; stroke:none;" d="M767 433L768 434L767 433z"/>
<path style="fill:#a7b2c6; stroke:none;" d="M380 434L381 435L380 434z"/>
<path style="fill:#7788a8; stroke:none;" d="M637 434L638 435L637 434M639 435L640 436L639 435z"/>
<path style="fill:#677a9d; stroke:none;" d="M766 435L767 436L766 435z"/>
<path style="fill:#5a6f95; stroke:none;" d="M381 436L382 437L381 436z"/>
<path style="fill:#7687a7; stroke:none;" d="M641 436L642 437L641 436z"/>
<path style="fill:#bcc4d4; stroke:none;" d="M766 436L767 437L766 436z"/>
<path style="fill:#bfc7d6; stroke:none;" d="M381 437L382 438L381 437z"/>
<path style="fill:#7586a6; stroke:none;" d="M643 437L644 438L643 437z"/>
<path style="fill:#7485a6; stroke:none;" d="M645 438L646 439L645 438z"/>
<path style="fill:#8796b2; stroke:none;" d="M765 438L766 439L765 438M382 439L383 440L382 439z"/>
<path style="fill:#37507e; stroke:none;" d="M647 439L648 440L647 439z"/>
<path style="fill:#4f658e; stroke:none;" d="M764 440L765 441L764 440M383 441L384 442L383 441z"/>
<path style="fill:#b7c0d1; stroke:none;" d="M764 441L765 442L764 441M383 442L384 443L383 442z"/>
<path style="fill:#7f8fad; stroke:none;" d="M763 443L764 444L763 443M384 444L385 445L384 444z"/>
<path style="fill:#536990; stroke:none;" d="M762 445L763 446L762 445z"/>
<path style="fill:#576c93; stroke:none;" d="M385 446L386 447L385 446z"/>
<path style="fill:#c7cedb; stroke:none;" d="M762 446L763 447L762 446M385 447L386 448L385 447z"/>
<path style="fill:#37507e; stroke:none;" d="M761 447L762 448L761 447M386 448L387 449L386 448z"/>
<path style="fill:#a7b2c6; stroke:none;" d="M761 448L762 449L761 448M386 449L387 450L386 449z"/>
<path style="fill:#8796b2; stroke:none;" d="M760 450L761 451L760 450z"/>
<path style="fill:#97a4bc; stroke:none;" d="M387 451L388 452L387 451z"/>
<path style="fill:#677a9d; stroke:none;" d="M759 452L760 453L759 452z"/>
<path style="fill:#7788a8; stroke:none;" d="M388 453L389 454L388 453z"/>
<path style="fill:#50668e; stroke:none;" d="M758 454L759 455L758 454z"/>
<path style="fill:#677a9d; stroke:none;" d="M389 455L390 456L389 455z"/>
<path style="fill:#4f658e; stroke:none;" d="M757 456L758 457L757 456z"/>
<path style="fill:#6f81a2; stroke:none;" d="M390 457L391 458L390 457z"/>
<path style="fill:#5f7398; stroke:none;" d="M756 458L757 459L756 458z"/>
<path style="fill:#7788a8; stroke:none;" d="M391 459L392 460L391 459z"/>
<path style="fill:#5f7398; stroke:none;" d="M755 460L756 461L755 460z"/>
<path style="fill:#7f8fad; stroke:none;" d="M392 461L393 462L392 461z"/>
<path style="fill:#6f81a2; stroke:none;" d="M754 462L755 463L754 462z"/>
<path style="fill:#8b9ab4; stroke:none;" d="M393 463L394 464L393 463z"/>
<path style="fill:#8796b2; stroke:none;" d="M753 464L754 465L753 464z"/>
<path style="fill:#b7c0d1; stroke:none;" d="M394 465L395 466L394 465z"/>
<path style="fill:#475e89; stroke:none;" d="M395 466L396 467L395 466z"/>
<path style="fill:#afb9cc; stroke:none;" d="M752 466L753 467L752 466z"/>
<path style="fill:#475e89; stroke:none;" d="M751 467L752 468L751 467z"/>
<path style="fill:#6f81a2; stroke:none;" d="M396 468L397 469L396 468z"/>
<path style="fill:#677a9d; stroke:none;" d="M750 469L751 470L750 469z"/>
<path style="fill:#97a4bc; stroke:none;" d="M397 470L398 471L397 470M749 471L750 472L749 471z"/>
<path style="fill:#6f81a2; stroke:none;" d="M399 473L400 474L399 473z"/>
<path style="fill:#7f8fad; stroke:none;" d="M747 474L748 475L747 474z"/>
<path style="fill:#c1c9d7; stroke:none;" d="M400 475L401 476L400 475z"/>
<path style="fill:#5f7398; stroke:none;" d="M401 476L402 477L401 476z"/>
<path style="fill:#6f81a2; stroke:none;" d="M745 477L746 478L745 477z"/>
<path style="fill:#afb9cc; stroke:none;" d="M402 478L403 479L402 478z"/>
<path style="fill:#4f658e; stroke:none;" d="M403 479L404 480L403 479z"/>
<path style="fill:#c3cbd8; stroke:none;" d="M744 479L745 480L744 479z"/>
<path style="fill:#64779b; stroke:none;" d="M743 480L744 481L743 480z"/>
<path style="fill:#a7b2c6; stroke:none;" d="M404 481L405 482L404 481z"/>
<path style="fill:#576c93; stroke:none;" d="M405 482L406 483L405 482z"/>
<path style="fill:#c7cedb; stroke:none;" d="M742 482L743 483L742 482z"/>
<path style="fill:#7788a8; stroke:none;" d="M741 483L742 484L741 483z"/>
<path style="fill:#b8c1d1; stroke:none;" d="M406 484L407 485L406 484z"/>
<path style="fill:#7788a8; stroke:none;" d="M407 485L408 486L407 485z"/>
<path style="fill:#8796b2; stroke:none;" d="M739 486L740 487L739 486z"/>
<path style="fill:#38517f; stroke:none;" d="M738 487L739 488L738 487z"/>
<path style="fill:#8796b2; stroke:none;" d="M409 488L410 489L409 488z"/>
<path style="fill:#4b628b; stroke:none;" d="M410 489L411 490L410 489z"/>
<path style="fill:#b4bdcf; stroke:none;" d="M737 489L738 490L737 489z"/>
<path style="fill:#7f8fad; stroke:none;" d="M736 490L737 491L736 490z"/>
<path style="fill:#4b628b; stroke:none;" d="M735 491L736 492L735 491z"/>
<path style="fill:#a5b0c5; stroke:none;" d="M412 492L413 493L412 492z"/>
<path style="fill:#6f81a2; stroke:none;" d="M413 493L414 494L413 493z"/>
<path style="fill:#cdd3df; stroke:none;" d="M734 493L735 494L734 493z"/>
<path style="fill:#3e5683; stroke:none;" d="M414 494L415 495L414 494z"/>
<path style="fill:#a5b0c5; stroke:none;" d="M733 494L734 495L733 494z"/>
<path style="fill:#6f81a2; stroke:none;" d="M732 495L733 496L732 495z"/>
<path style="fill:#cdd3df; stroke:none;" d="M415 496L416 497L415 496z"/>
<path style="fill:#425a85; stroke:none;" d="M731 496L732 497L731 496z"/>
<path style="fill:#aeb8cb; stroke:none;" d="M416 497L417 498L416 497z"/>
<path style="fill:#a0acc2; stroke:none;" d="M417 498L418 499L417 498z"/>
<path style="fill:#7f8fad; stroke:none;" d="M418 499L419 500L418 499z"/>
<path style="fill:#5f7398; stroke:none;" d="M419 500L420 501L419 500z"/>
<path style="fill:#c9d0dc; stroke:none;" d="M728 500L729 501L728 500z"/>
<path style="fill:#445b87; stroke:none;" d="M420 501L421 502L420 501z"/>
<path style="fill:#b1bbcd; stroke:none;" d="M727 501L728 502L727 501z"/>
<path style="fill:#38517f; stroke:none;" d="M421 502L422 503L421 502z"/>
<path style="fill:#8f9db7; stroke:none;" d="M726 502L727 503L726 502z"/>
<path style="fill:#7385a5; stroke:none;" d="M725 503L726 504L725 503z"/>
<path style="fill:#687b9e; stroke:none;" d="M724 504L725 505L724 504z"/>
<path style="fill:#596e94; stroke:none;" d="M723 505L724 506L723 505z"/>
<path style="fill:#cad1dd; stroke:none;" d="M424 506L425 507L424 506z"/>
<path style="fill:#4c628c; stroke:none;" d="M722 506L723 507L722 506z"/>
<path style="fill:#bfc7d6; stroke:none;" d="M425 507L426 508L425 507z"/>
<path style="fill:#405884; stroke:none;" d="M721 507L722 508L721 507z"/>
<path style="fill:#b3bdce; stroke:none;" d="M426 508L427 509L426 508z"/>
<path style="fill:#354e7d; stroke:none;" d="M720 508L721 509L720 508z"/>
<path style="fill:#a6b1c6; stroke:none;" d="M427 509L428 510L427 509z"/>
<path style="fill:#96a3bb; stroke:none;" d="M428 510L429 511L428 510z"/>
<path style="fill:#a4afc4; stroke:none;" d="M429 511L430 512L429 511z"/>
<path style="fill:#b0bacc; stroke:none;" d="M430 512L431 513L430 512M431 513L432 514L431 513z"/>
<path style="fill:#38517f; stroke:none;" d="M715 513L716 514L715 513z"/>
<path style="fill:#bcc4d4; stroke:none;" d="M432 514L433 515L432 514z"/>
<path style="fill:#435b86; stroke:none;" d="M714 514L715 515L714 514z"/>
<path style="fill:#c7cedb; stroke:none;" d="M433 515L434 516L433 515z"/>
<path style="fill:#4f658e; stroke:none;" d="M713 515L714 516L713 515M712 516L713 517L712 516z"/>
<path style="fill:#63779b; stroke:none;" d="M711 517L712 518L711 517z"/>
<path style="fill:#344d7c; stroke:none;" d="M437 518L438 519L437 518z"/>
<path style="fill:#7c8cab; stroke:none;" d="M710 518L711 519L710 518z"/>
<path style="fill:#49608a; stroke:none;" d="M438 519L439 520L438 519z"/>
<path style="fill:#a1adc3; stroke:none;" d="M709 519L710 520L709 519z"/>
<path style="fill:#62769a; stroke:none;" d="M439 520L440 521L439 520z"/>
<path style="fill:#c3cbd8; stroke:none;" d="M708 520L709 521L708 520z"/>
<path style="fill:#8c9ab5; stroke:none;" d="M440 521L441 522L440 521z"/>
<path style="fill:#aab5c8; stroke:none;" d="M441 522L442 523L441 522z"/>
<path style="fill:#334d7c; stroke:none;" d="M705 522L706 523L705 522z"/>
<path style="fill:#c0c8d6; stroke:none;" d="M442 523L443 524L442 523z"/>
<path style="fill:#475e89; stroke:none;" d="M704 523L705 524L704 523z"/>
<path style="fill:#6f81a2; stroke:none;" d="M703 524L704 525L703 524z"/>
<path style="fill:#607499; stroke:none;" d="M445 525L446 526L445 525z"/>
<path style="fill:#abb6c9; stroke:none;" d="M702 525L703 526L702 525z"/>
<path style="fill:#9fabc1; stroke:none;" d="M446 526L447 527L446 526z"/>
<path style="fill:#c9d0dc; stroke:none;" d="M447 527L448 528L447 527z"/>
<path style="fill:#546991; stroke:none;" d="M699 527L700 528L699 527z"/>
<path style="fill:#49608a; stroke:none;" d="M449 528L450 529L449 528z"/>
<path style="fill:#94a1ba; stroke:none;" d="M698 528L699 529L698 528z"/>
<path style="fill:#7c8cab; stroke:none;" d="M450 529L451 530L450 529z"/>
<path style="fill:#c9d0dc; stroke:none;" d="M697 529L698 530L697 529z"/>
<path style="fill:#b9c2d2; stroke:none;" d="M451 530L452 531L451 530z"/>
<path style="fill:#4d638d; stroke:none;" d="M695 530L696 531L695 530z"/>
<path style="fill:#50668e; stroke:none;" d="M453 531L454 532L453 531z"/>
<path style="fill:#9fabc1; stroke:none;" d="M694 531L695 532L694 531z"/>
<path style="fill:#95a2bb; stroke:none;" d="M454 532L455 533L454 532z"/>
<path style="fill:#334d7c; stroke:none;" d="M456 533L457 534L456 533z"/>
<path style="fill:#7183a4; stroke:none;" d="M691 533L692 534L691 533z"/>
<path style="fill:#7385a5; stroke:none;" d="M457 534L458 535L457 534z"/>
<path style="fill:#bcc4d4; stroke:none;" d="M690 534L691 535L690 534z"/>
<path style="fill:#b9c2d2; stroke:none;" d="M458 535L459 536L458 535z"/>
<path style="fill:#4d638d; stroke:none;" d="M688 535L689 536L688 535z"/>
<path style="fill:#6f81a2; stroke:none;" d="M460 536L461 537L460 536z"/>
<path style="fill:#afb9cc; stroke:none;" d="M687 536L688 537L687 536z"/>
<path style="fill:#cbd2de; stroke:none;" d="M461 537L462 538L461 537z"/>
<path style="fill:#64779b; stroke:none;" d="M685 537L686 538L685 537z"/>
<path style="fill:#8393af; stroke:none;" d="M463 538L464 539L463 538z"/>
<path style="fill:#c2cad8; stroke:none;" d="M684 538L685 539L684 538z"/>
<path style="fill:#465d88; stroke:none;" d="M465 539L466 540L465 539z"/>
<path style="fill:#8292af; stroke:none;" d="M682 539L683 540L682 539z"/>
<path style="fill:#a2aec3; stroke:none;" d="M466 540L467 541L466 540z"/>
<path style="fill:#465d88; stroke:none;" d="M680 540L681 541L680 540z"/>
<path style="fill:#677a9d; stroke:none;" d="M468 541L469 542L468 541z"/>
<path style="fill:#a7b2c6; stroke:none;" d="M679 541L680 542L679 541z"/>
<path style="fill:#3f5784; stroke:none;" d="M470 542L471 543L470 542z"/>
<path style="fill:#798aa9; stroke:none;" d="M677 542L678 543L677 542z"/>
<path style="fill:#a9b4c8; stroke:none;" d="M471 543L472 544L471 543z"/>
<path style="fill:#536990; stroke:none;" d="M675 543L676 544L675 543z"/>
<path style="fill:#8393af; stroke:none;" d="M473 544L474 545L473 544z"/>
<path style="fill:#c0c8d6; stroke:none;" d="M674 544L675 545L674 544z"/>
<path style="fill:#546991; stroke:none;" d="M475 545L476 546L475 545z"/>
<path style="fill:#94a1ba; stroke:none;" d="M672 545L673 546L672 545z"/>
<path style="fill:#c7cedb; stroke:none;" d="M476 546L477 547L476 546z"/>
<path style="fill:#49608a; stroke:none;" d="M477 546L478 547L477 546z"/>
<path style="fill:#798aa9; stroke:none;" d="M670 546L671 547L670 546z"/>
<path style="fill:#c7cedb; stroke:none;" d="M478 547L479 548L478 547z"/>
<path style="fill:#405884; stroke:none;" d="M479 547L480 548L479 547z"/>
<path style="fill:#798aa9; stroke:none;" d="M668 547L669 548L668 547z"/>
<path style="fill:#bfc7d6; stroke:none;" d="M480 548L481 549L480 548z"/>
<path style="fill:#405884; stroke:none;" d="M481 548L482 549L481 548z"/>
<path style="fill:#7183a4; stroke:none;" d="M666 548L667 549L666 548z"/>
<path style="fill:#bfc7d6; stroke:none;" d="M482 549L483 550L482 549z"/>
<path style="fill:#38517f; stroke:none;" d="M483 549L484 550L483 549z"/>
<path style="fill:#7183a4; stroke:none;" d="M664 549L665 550L664 549z"/>
<path style="fill:#b7c0d1; stroke:none;" d="M484 550L485 551L484 550z"/>
<path style="fill:#3b5481; stroke:none;" d="M485 550L486 551L485 550z"/>
<path style="fill:#6b7ea0; stroke:none;" d="M662 550L663 551L662 550z"/>
<path style="fill:#c3cbd8; stroke:none;" d="M486 551L487 552L486 551z"/>
<path style="fill:#4b628b; stroke:none;" d="M487 551L488 552L487 551z"/>
<path style="fill:#7f8fad; stroke:none;" d="M660 551L661 552L660 551z"/>
<path style="fill:#5a6f95; stroke:none;" d="M489 552L490 553L489 552z"/>
<path style="fill:#8e9cb6; stroke:none;" d="M658 552L659 553L658 552z"/>
<path style="fill:#697c9f; stroke:none;" d="M491 553L492 554L491 553z"/>
<path style="fill:#9ca8bf; stroke:none;" d="M656 553L657 554L656 553z"/>
<path style="fill:#7c8cab; stroke:none;" d="M493 554L494 555L493 554z"/>
<path style="fill:#3a5380; stroke:none;" d="M653 554L654 555L653 554z"/>
<path style="fill:#b0bacc; stroke:none;" d="M654 554L655 555L654 554z"/>
<path style="fill:#aeb8cb; stroke:none;" d="M495 555L496 556L495 555z"/>
<path style="fill:#4e648d; stroke:none;" d="M496 555L497 556L496 555z"/>
<path style="fill:#7788a8; stroke:none;" d="M651 555L652 556L651 555z"/>
<path style="fill:#909eb8; stroke:none;" d="M498 556L499 557L498 556z"/>
<path style="fill:#536990; stroke:none;" d="M648 556L649 557L648 556z"/>
<path style="fill:#b3bdce; stroke:none;" d="M649 556L650 557L649 556z"/>
<path style="fill:#6c7ea0; stroke:none;" d="M501 557L502 558L501 557z"/>
<path style="fill:#354e7d; stroke:none;" d="M645 557L646 558L645 557z"/>
<path style="fill:#95a2bb; stroke:none;" d="M646 557L647 558L646 557z"/>
<path style="fill:#b1bbcd; stroke:none;" d="M503 558L504 559L503 558z"/>
<path style="fill:#576c93; stroke:none;" d="M504 558L505 559L504 558z"/>
<path style="fill:#7d8dab; stroke:none;" d="M643 558L644 559L643 558z"/>
<path style="fill:#a9b4c8; stroke:none;" d="M506 559L507 560L506 559z"/>
<path style="fill:#526890; stroke:none;" d="M507 559L508 560L507 559z"/>
<path style="fill:#7788a8; stroke:none;" d="M640 559L641 560L640 559z"/>
<path style="fill:#a4afc4; stroke:none;" d="M509 560L510 561L509 560z"/>
<path style="fill:#4c628c; stroke:none;" d="M510 560L511 561L510 560z"/>
<path style="fill:#6c7ea0; stroke:none;" d="M637 560L638 561L637 560z"/>
<path style="fill:#c4cbd9; stroke:none;" d="M638 560L639 561L638 560z"/>
<path style="fill:#98a5bd; stroke:none;" d="M512 561L513 562L512 561z"/>
<path style="fill:#50668e; stroke:none;" d="M513 561L514 562L513 561z"/>
<path style="fill:#6d7fa1; stroke:none;" d="M634 561L635 562L634 561z"/>
<path style="fill:#c0c8d6; stroke:none;" d="M635 561L636 562L635 561z"/>
<path style="fill:#bec6d5; stroke:none;" d="M515 562L516 563L515 562z"/>
<path style="fill:#7586a6; stroke:none;" d="M516 562L517 563L516 562z"/>
<path style="fill:#4c628c; stroke:none;" d="M630 562L631 563L630 562z"/>
<path style="fill:#94a1ba; stroke:none;" d="M631 562L632 563L631 562z"/>
<path style="fill:#9eaac1; stroke:none;" d="M519 563L520 564L519 563z"/>
<path style="fill:#566b92; stroke:none;" d="M520 563L521 564L520 563z"/>
<path style="fill:#7082a3; stroke:none;" d="M627 563L628 564L627 563z"/>
<path style="fill:#b8c1d1; stroke:none;" d="M628 563L629 564L628 563z"/>
<path style="fill:#c5ccda; stroke:none;" d="M522 564L523 565L522 564z"/>
<path style="fill:#8a99b4; stroke:none;" d="M523 564L524 565L523 564z"/>
<path style="fill:#50668e; stroke:none;" d="M524 564L525 565L524 564z"/>
<path style="fill:#65789c; stroke:none;" d="M623 564L624 565L623 564z"/>
<path style="fill:#9fabc1; stroke:none;" d="M624 564L625 565L624 564z"/>
<path style="fill:#a0acc2; stroke:none;" d="M527 565L528 566L527 565z"/>
<path style="fill:#66799d; stroke:none;" d="M528 565L529 566L528 565z"/>
<path style="fill:#445b87; stroke:none;" d="M618 565L619 566L618 565z"/>
<path style="fill:#7e8eac; stroke:none;" d="M619 565L620 566L619 565z"/>
<path style="fill:#b8c1d1; stroke:none;" d="M620 565L621 566L620 565z"/>
<path style="fill:#b9c2d2; stroke:none;" d="M531 566L532 567L531 566z"/>
<path style="fill:#8090ad; stroke:none;" d="M532 566L533 567L532 566z"/>
<path style="fill:#4b628b; stroke:none;" d="M533 566L534 567L533 566z"/>
<path style="fill:#607499; stroke:none;" d="M614 566L615 567L614 566z"/>
<path style="fill:#95a2bb; stroke:none;" d="M615 566L616 567L615 566z"/>
<path style="fill:#b4bdcf; stroke:none;" d="M536 567L537 568L536 567z"/>
<path style="fill:#8191ae; stroke:none;" d="M537 567L538 568L537 567z"/>
<path style="fill:#4f658e; stroke:none;" d="M538 567L539 568L538 567z"/>
<path style="fill:#617599; stroke:none;" d="M609 567L610 568L609 567z"/>
<path style="fill:#94a1ba; stroke:none;" d="M610 567L611 568L610 567z"/>
<path style="fill:#8594b1; stroke:none;" d="M541.667 568.333C541.222 568.778 542.278 568.722 542.333 568.667C542.778 568.222 541.722 568.278 541.667 568.333z"/>
<path style="fill:#435b86; stroke:none;" d="M543 568C544.248 568.685 544.549 568.749 546 569C544.752 568.315 544.452 568.251 543 568z"/>
<path style="fill:#4e648d; stroke:none;" d="M602.667 568.333C602.222 568.778 603.278 568.722 603.333 568.667C603.778 568.222 602.722 568.278 602.667 568.333z"/>
<path style="fill:#98a5bd; stroke:none;" d="M604.667 568.333C604.222 568.778 605.278 568.722 605.333 568.667C605.778 568.222 604.722 568.278 604.667 568.333z"/>
<path style="fill:#cad1dd; stroke:none;" d="M606 568L607 569L606 568z"/>
<path style="fill:#a7b2c6; stroke:none;" d="M548.667 569.333C548.222 569.778 549.278 569.722 549.333 569.667C549.778 569.222 548.722 569.278 548.667 569.333z"/>
<path style="fill:#697c9f; stroke:none;" d="M550.667 569.333C550.222 569.778 551.278 569.722 551.333 569.667C551.778 569.222 550.722 569.278 550.667 569.333z"/>
<path style="fill:#334d7c; stroke:none;" d="M552 569C553.248 569.685 553.548 569.749 555 570C553.752 569.315 553.452 569.251 552 569z"/>
<path style="fill:#284375; stroke:none;" d="M592 569C593.248 569.685 593.549 569.749 595 570C593.752 569.315 593.452 569.251 592 569z"/>
<path style="fill:#7687a7; stroke:none;" d="M595 569C596.248 569.685 596.548 569.749 598 570C596.752 569.315 596.452 569.251 595 569z"/>
<path style="fill:#d3d9e3; stroke:none;" d="M598.667 569.333C598.222 569.778 599.278 569.722 599.333 569.667C599.778 569.222 598.722 569.278 598.667 569.333z"/>
<path style="fill:#e0e4eb; stroke:none;" d="M557 570C558.248 570.685 558.549 570.749 560 571C558.752 570.315 558.452 570.251 557 570z"/>
<path style="fill:#9fabc1; stroke:none;" d="M560 570C561.506 570.683 562.315 570.826 564 571C562.494 570.317 561.685 570.174 560 570z"/>
<path style="fill:#8493b0; stroke:none;" d="M564 570C569.959 572.5 578.564 571 585 571C579.041 568.5 570.436 570 564 570z"/>
<path style="fill:#bdc5d5; stroke:none;" d="M585.667 570.333C585.222 570.778 586.278 570.722 586.333 570.667C586.778 570.222 585.722 570.278 585.667 570.333z"/>
<path style="fill:#d9dee7; stroke:none;" d="M587 570C588.248 570.685 588.548 570.749 590 571C588.752 570.315 588.452 570.251 587 570z"/>
</svg>
